<svg width="60" xmlns="http://www.w3.org/2000/svg" height="60" fill="none"><g style="fill: rgb(0, 0, 0);"><path d="M15.350,37.423L22.420,44.492C21.165,45.792,19.306,46.314,17.557,45.856C15.809,45.398,14.444,44.033,13.987,42.285C13.529,40.537,14.050,38.678,15.350,37.423ZZM37.517,50.735L35.753,52.500L7.500,24.248L9.265,22.483L12.020,22.875C13.905,23.145,16.243,22.570,17.212,21.600L26.925,11.890C32.792,6.134,42.201,6.178,48.012,11.990C53.824,17.802,53.869,27.211,48.112,33.077L38.400,42.790C37.430,43.760,36.855,46.098,37.125,47.983L37.517,50.735ZZ" style="fill: rgb(238, 189, 83); fill-opacity: 1;" class="fills"/></g></svg>