<svg width="40" xmlns="http://www.w3.org/2000/svg" height="40" fill="none"><path d="M17.500,7.500L22.500,7.500C22.500,6.119,21.381,5.000,20.000,5.000C18.619,5.000,17.500,6.119,17.500,7.500ZZM15.000,7.500C15.000,4.739,17.239,2.500,20.000,2.500C22.761,2.500,25.000,4.739,25.000,7.500L35.000,7.500C35.690,7.500,36.250,8.060,36.250,8.750C36.250,9.440,35.690,10.000,35.000,10.000L33.590,10.000L30.577,32.095C30.155,35.191,27.510,37.500,24.385,37.500L15.615,37.500C12.490,37.500,9.845,35.191,9.422,32.095L6.410,10.000L5.000,10.000C4.310,10.000,3.750,9.440,3.750,8.750C3.750,8.060,4.310,7.500,5.000,7.500L15.000,7.500ZZM17.500,16.250C17.500,15.560,16.940,15.000,16.250,15.000C15.560,15.000,15.000,15.560,15.000,16.250L15.000,28.750C15.000,29.440,15.560,30.000,16.250,30.000C16.940,30.000,17.500,29.440,17.500,28.750L17.500,16.250ZZM23.750,15.000C24.440,15.000,25.000,15.560,25.000,16.250L25.000,28.750C25.000,29.440,24.440,30.000,23.750,30.000C23.060,30.000,22.500,29.440,22.500,28.750L22.500,16.250C22.500,15.560,23.060,15.000,23.750,15.000ZZM11.900,31.757C12.154,33.615,13.740,35.000,15.615,35.000L24.385,35.000C26.261,35.001,27.849,33.616,28.102,31.757L31.067,10.000L8.932,10.000L11.900,31.757ZZ" style="fill: rgb(0, 0, 0);" class="fills"/></svg>