<svg width="70" xmlns="http://www.w3.org/2000/svg" height="70" fill="none"><g style="fill: rgb(0, 0, 0);"><path d="M31.719,36.094L36.094,36.094L36.094,50.313M10.938,26.250L59.063,26.250M45.938,17.500L45.938,8.750M24.063,17.500L24.063,8.750M15.313,61.250L54.688,61.250C57.104,61.250,59.063,59.291,59.063,56.875L59.063,17.500C59.063,15.084,57.104,13.125,54.688,13.125L15.313,13.125C12.896,13.125,10.938,15.084,10.938,17.500L10.938,56.875C10.938,59.291,12.896,61.250,15.313,61.250ZZ" fill="none" style="fill: none;" class="fills"/><g fill="none" stroke-linejoin="round" class="strokes"><path d="M31.719,36.094L36.094,36.094L36.094,50.313M10.938,26.250L59.063,26.250M45.938,17.500L45.938,8.750M24.063,17.500L24.063,8.750M15.313,61.250L54.688,61.250C57.104,61.250,59.063,59.291,59.063,56.875L59.063,17.500C59.063,15.084,57.104,13.125,54.688,13.125L15.313,13.125C12.896,13.125,10.938,15.084,10.938,17.500L10.938,56.875C10.938,59.291,12.896,61.250,15.313,61.250ZZ" style="fill: none; stroke-width: 2; stroke: rgb(0, 0, 0); stroke-opacity: 1;" class="stroke-shape"/></g></g></svg>