<svg width="60" xmlns="http://www.w3.org/2000/svg" height="60" fill="none"><g style="fill: rgb(0, 0, 0);"><path d="M30.070,43.075C30.623,43.075,31.090,42.885,31.470,42.505C31.848,42.122,32.038,41.655,32.038,41.105C32.038,40.552,31.847,40.085,31.465,39.705C31.083,39.325,30.617,39.135,30.065,39.135C29.512,39.135,29.045,39.326,28.665,39.708C28.285,40.089,28.095,40.556,28.095,41.107C28.095,41.661,28.287,42.128,28.670,42.507C29.050,42.888,29.517,43.077,30.070,43.075ZZM30.008,52.500C26.898,52.500,23.973,51.910,21.233,50.730C18.494,49.548,16.112,47.945,14.085,45.920C12.058,43.897,10.454,41.517,9.272,38.780C8.091,36.043,7.500,33.119,7.500,30.007C7.500,26.897,8.090,23.972,9.270,21.233C10.452,18.494,12.055,16.112,14.080,14.085C16.103,12.058,18.483,10.454,21.220,9.273C23.957,8.091,26.881,7.500,29.992,7.500C33.102,7.500,36.027,8.090,38.767,9.270C41.506,10.452,43.888,12.055,45.915,14.080C47.942,16.103,49.546,18.483,50.727,21.220C51.909,23.957,52.500,26.881,52.500,29.993C52.500,33.103,51.910,36.028,50.730,38.767C49.548,41.506,47.945,43.888,45.920,45.915C43.897,47.942,41.517,49.546,38.780,50.727C36.043,51.909,33.119,52.500,30.008,52.500ZZM30.000,50.000C35.583,50.000,40.313,48.063,44.188,44.188C48.063,40.313,50.000,35.583,50.000,30.000C50.000,24.417,48.063,19.688,44.188,15.813C40.313,11.938,35.583,10.000,30.000,10.000C24.417,10.000,19.688,11.938,15.813,15.813C11.938,19.688,10.000,24.417,10.000,30.000C10.000,35.583,11.938,40.313,15.813,44.188C19.688,48.063,24.417,50.000,30.000,50.000ZZM30.000,30.000ZM30.155,19.345C31.422,19.345,32.512,19.738,33.425,20.525C34.342,21.310,34.800,22.292,34.800,23.470C34.800,24.387,34.542,25.216,34.025,25.958C33.512,26.698,32.917,27.380,32.240,28.005C31.383,28.782,30.629,29.636,29.977,30.568C29.326,31.501,28.952,32.528,28.855,33.650C28.823,33.977,28.925,34.249,29.160,34.467C29.395,34.686,29.670,34.796,29.985,34.798C30.322,34.798,30.605,34.686,30.835,34.463C31.063,34.237,31.208,33.972,31.270,33.668C31.437,32.826,31.772,32.077,32.275,31.420C32.778,30.765,33.330,30.144,33.930,29.558C34.793,28.699,35.561,27.762,36.233,26.748C36.904,25.734,37.240,24.603,37.240,23.355C37.240,21.518,36.544,20.003,35.153,18.810C33.759,17.617,32.125,17.020,30.250,17.020C28.858,17.020,27.564,17.345,26.368,17.995C25.171,18.645,24.213,19.545,23.495,20.695C23.332,20.972,23.279,21.257,23.338,21.552C23.396,21.847,23.554,22.071,23.813,22.222C24.143,22.398,24.476,22.439,24.813,22.347C25.149,22.254,25.446,22.060,25.702,21.765C26.256,21.075,26.908,20.500,27.660,20.040C28.412,19.577,29.243,19.345,30.155,19.345ZZ" style="fill: rgb(140, 175, 212); fill-opacity: 1;" class="fills"/></g></svg>