<svg width="30" xmlns="http://www.w3.org/2000/svg" height="30" fill="none"><path d="M27.875,2.961L27.039,2.125C25.455,0.542,22.888,0.542,21.304,2.125L4.415,19.015L1.068,27.767C0.675,28.803,1.200,29.325,2.232,28.930L10.986,25.586L27.875,8.696C29.460,7.113,29.458,4.546,27.875,2.961ZM17.267,7.408L18.443,8.583L6.835,20.192L5.659,19.016L17.267,7.408ZM19.065,9.205L20.797,10.937L9.189,22.546L7.457,20.814L19.065,9.205ZM5.168,26.869L3.133,24.832L5.102,19.703L10.296,24.895L5.168,26.869ZM10.986,24.344L9.811,23.167L21.419,11.559L22.594,12.735L10.986,24.344ZM23.272,12.058L17.944,6.731L19.269,5.406L24.597,10.732L23.272,12.058Z" style="fill: rgb(0, 0, 0);" class="fills"/></svg>