<svg width="50" xmlns="http://www.w3.org/2000/svg" height="50" fill="none"><path d="M5.697,43.197L15.990,32.904C9.991,26.304,10.354,16.123,16.810,9.967C23.265,3.812,33.452,3.934,39.759,10.241C46.066,16.548,46.188,26.735,40.033,33.190C33.877,39.646,23.696,40.009,17.096,34.010L6.803,44.303C6.497,44.608,6.003,44.608,5.697,44.303C5.392,43.997,5.392,43.503,5.697,43.197ZZM42.969,21.875C42.969,13.677,36.323,7.031,28.125,7.031C19.927,7.031,13.281,13.677,13.281,21.875C13.281,30.073,19.927,36.719,28.125,36.719C36.319,36.710,42.960,30.069,42.969,21.875ZZ" style="fill: rgb(0, 0, 0);" class="fills"/></svg>