<svg width="60" xmlns="http://www.w3.org/2000/svg" height="60" fill="none"><g style="fill: rgb(0, 0, 0);"><ellipse cx="14.281" cy="16.321" rx="7.406" ry="7.406" transform="matrix(1.000000, 0.000000, 0.000000, 1.000000, 0.000000, 0.000000)" fill="none" style="fill: none;" class="fills"/><g fill="none" stroke-linejoin="round" class="strokes"><g class="inner-stroke-shape" transform="matrix(1.000000, 0.000000, 0.000000, 1.000000, 0.000000, 0.000000)"><defs><clipPath id="b"><use href="#a"/></clipPath><ellipse cx="14.281" cy="16.321" rx="7.406" ry="7.406" id="a" style="fill: none; stroke-width: 2; stroke: rgb(140, 175, 212); stroke-opacity: 1;"/></defs><use href="#a" clip-path="url('#b')"/></g></g><ellipse cx="14.281" cy="32.191" rx="3.628" ry="3.627" transform="matrix(1.000000, 0.000000, 0.000000, 1.000000, 0.000000, 0.000000)" fill="none" style="fill: none;" class="fills"/><g fill="none" stroke-linejoin="round" class="strokes"><g class="inner-stroke-shape" transform="matrix(1.000000, 0.000000, 0.000000, 1.000000, 0.000000, 0.000000)"><defs><clipPath id="d"><use href="#c"/></clipPath><ellipse cx="14.281" cy="32.191" rx="3.628" ry="3.627" id="c" style="fill: none; stroke-width: 2; stroke: rgb(140, 175, 212); stroke-opacity: 1;"/></defs><use href="#c" clip-path="url('#d')"/></g></g><ellipse cx="14.281" cy="47.457" rx="3.628" ry="3.627" transform="matrix(1.000000, 0.000000, 0.000000, 1.000000, 0.000000, 0.000000)" fill="none" style="fill: none;" class="fills"/><g fill="none" stroke-linejoin="round" class="strokes"><g class="inner-stroke-shape" transform="matrix(1.000000, 0.000000, 0.000000, 1.000000, 0.000000, 0.000000)"><defs><clipPath id="f"><use href="#e"/></clipPath><ellipse cx="14.281" cy="47.457" rx="3.628" ry="3.627" id="e" style="fill: none; stroke-width: 2; stroke: rgb(140, 175, 212); stroke-opacity: 1;"/></defs><use href="#e" clip-path="url('#f')"/></g></g><path d="M23.653,47.457L53.125,47.457M23.653,32.191L53.125,32.191M27.254,16.321L53.125,16.321M10.742,16.614L12.907,18.778L17.819,13.865" fill="none" style="fill: none;" class="fills"/><g fill="none" stroke-linejoin="round" class="strokes"><path d="M23.653,47.457L53.125,47.457M23.653,32.191L53.125,32.191M27.254,16.321L53.125,16.321M10.742,16.614L12.907,18.778L17.819,13.865" style="fill: none; stroke-width: 1; stroke: rgb(140, 175, 212); stroke-opacity: 1;" class="stroke-shape"/></g></g></svg>