<svg width="66" xmlns="http://www.w3.org/2000/svg" height="66" viewBox="1200 512 66 66" fill="none"><path d="M1203.000,515.000L1263.000,515.000L1263.000,575.000L1203.000,575.000L1203.000,515.000ZM1217.281,523.915C1221.369,523.915,1224.688,527.234,1224.688,531.321C1224.688,535.409,1221.369,538.727,1217.281,538.727C1213.194,538.727,1209.875,535.409,1209.875,531.321C1209.875,527.234,1213.194,523.915,1217.281,523.915ZM1217.281,543.564C1219.283,543.564,1220.909,545.189,1220.909,547.191C1220.909,549.193,1219.283,550.819,1217.281,550.819C1215.279,550.819,1213.654,549.193,1213.654,547.191C1213.654,545.189,1215.279,543.564,1217.281,543.564ZM1217.281,558.830C1219.283,558.830,1220.909,560.455,1220.909,562.457C1220.909,564.460,1219.283,566.085,1217.281,566.085C1215.279,566.085,1213.654,564.460,1213.654,562.457C1213.654,560.455,1215.279,558.830,1217.281,558.830ZM1226.653,562.457L1256.125,562.457M1226.653,547.191L1256.125,547.191M1230.254,531.321L1256.125,531.321M1213.743,531.614L1215.908,533.778L1220.819,528.865" class="fills"/><g class="strokes"><path d="M1203.000,515.000L1263.000,515.000L1263.000,575.000L1203.000,575.000L1203.000,515.000ZM1217.281,523.915C1221.369,523.915,1224.688,527.234,1224.688,531.321C1224.688,535.409,1221.369,538.727,1217.281,538.727C1213.194,538.727,1209.875,535.409,1209.875,531.321C1209.875,527.234,1213.194,523.915,1217.281,523.915ZM1217.281,543.564C1219.283,543.564,1220.909,545.189,1220.909,547.191C1220.909,549.193,1219.283,550.819,1217.281,550.819C1215.279,550.819,1213.654,549.193,1213.654,547.191C1213.654,545.189,1215.279,543.564,1217.281,543.564ZM1217.281,558.830C1219.283,558.830,1220.909,560.455,1220.909,562.457C1220.909,564.460,1219.283,566.085,1217.281,566.085C1215.279,566.085,1213.654,564.460,1213.654,562.457C1213.654,560.455,1215.279,558.830,1217.281,558.830ZM1226.653,562.457L1256.125,562.457M1226.653,547.191L1256.125,547.191M1230.254,531.321L1256.125,531.321M1213.743,531.614L1215.908,533.778L1220.819,528.865" style="fill: none; stroke-width: 1; stroke: rgb(140, 175, 212); stroke-opacity: 1;" class="stroke-shape"/></g></svg>