<svg width="40" xmlns="http://www.w3.org/2000/svg" height="40" fill="none"><path d="M18.822,3.822C19.472,3.171,20.528,3.171,21.178,3.822L27.845,10.488C28.477,11.142,28.468,12.182,27.825,12.825C27.182,13.468,26.142,13.477,25.488,12.845L21.667,9.023L21.667,26.667C21.667,27.587,20.920,28.333,20.000,28.333C19.080,28.333,18.333,27.587,18.333,26.667L18.333,9.023L14.512,12.845C13.858,13.477,12.818,13.468,12.175,12.825C11.532,12.182,11.523,11.142,12.155,10.488L18.822,3.822ZZM8.333,28.333C9.254,28.333,10.000,29.080,10.000,30.000L10.000,33.333L30.000,33.333L30.000,30.000C30.000,29.080,30.746,28.333,31.667,28.333C32.587,28.333,33.333,29.080,33.333,30.000L33.333,33.333C33.333,35.174,31.841,36.667,30.000,36.667L10.000,36.667C8.159,36.667,6.667,35.174,6.667,33.333L6.667,30.000C6.667,29.080,7.413,28.333,8.333,28.333ZZ" style="fill: rgb(0, 0, 0);" class="fills"/></svg>