<svg width="70" xmlns="http://www.w3.org/2000/svg" height="70" fill="none"><g style="fill: rgb(0, 0, 0);"><ellipse cy="35" transform="matrix(1.000000, 0.000000, 0.000000, 1.000000, 0.000000, 0.000000)" style="fill: none;" ry="31.354" fill="none" rx="31.354" cx="35" class="fills"/><g fill="none" stroke-linecap="round" stroke-linejoin="round" class="strokes"><ellipse cx="35" cy="35" rx="31.354" ry="31.354" transform="matrix(1.000000, 0.000000, 0.000000, 1.000000, 0.000000, 0.000000)" style="fill: none; stroke-width: 1; stroke: rgb(0, 0, 0); stroke-opacity: 1;" class="stroke-shape"/></g><path d="M37.941,29.259L37.941,40.715M46.152,40.715L40.956,34.987L46.152,29.298M40.956,34.987L37.941,34.987M21.034,39.234C20.086,40.184,18.798,40.717,17.456,40.715L17.456,40.715C14.661,40.715,12.396,38.450,12.396,35.655L12.396,34.319C12.396,31.524,14.661,29.259,17.456,29.259L17.456,29.259C18.853,29.259,20.118,29.826,21.034,30.742M49.967,34.987L54.946,34.987M57.604,40.715L49.967,40.715L49.967,29.259L57.604,29.259M24.197,40.706L29.162,29.285L34.126,40.741" fill="none" style="fill: none;" class="fills"/><g fill="none" stroke-linecap="round" stroke-linejoin="round" class="strokes"><path d="M37.941,29.259L37.941,40.715M46.152,40.715L40.956,34.987L46.152,29.298M40.956,34.987L37.941,34.987M21.034,39.234C20.086,40.184,18.798,40.717,17.456,40.715L17.456,40.715C14.661,40.715,12.396,38.450,12.396,35.655L12.396,34.319C12.396,31.524,14.661,29.259,17.456,29.259L17.456,29.259C18.853,29.259,20.118,29.826,21.034,30.742M49.967,34.987L54.946,34.987M57.604,40.715L49.967,40.715L49.967,29.259L57.604,29.259M24.197,40.706L29.162,29.285L34.126,40.741" style="fill: none; stroke-width: 1; stroke: rgb(0, 0, 0); stroke-opacity: 1;" class="stroke-shape"/></g></g></svg>