<svg width="71.678" xmlns="http://www.w3.org/2000/svg" height="68" fill="none"><ellipse cx="17" cy="15.5" rx="17" ry="15.5" transform="matrix(1.000000, 0.000000, 0.000000, 1.000000, 0.000000, 0.000000)" style="fill: rgb(132, 187, 208); fill-opacity: 1;" class="fills"/><g style="fill: rgb(0, 0, 0);"><path d="M12.000,39.000L12.000,46.250C12.000,55.675,19.750,63.167,29.500,63.167L44.500,63.167C54.250,63.167,62.000,55.675,62.000,46.250L62.000,39.000L12.000,39.000ZM17.000,43.833L57.000,43.833L57.000,46.250C57.000,53.017,51.500,58.333,44.500,58.333L29.500,58.333C22.500,58.333,17.000,53.017,17.000,46.250L17.000,43.833ZZ" style="fill: rgb(243, 154, 162); fill-opacity: 1;" class="fills"/></g><g style="fill: rgb(0, 0, 0);"><path d="M12.841,6.171C11.123,5.273,9.063,6.458,9.063,8.243L9.063,22.757C9.063,24.543,11.123,25.727,12.841,24.829L26.721,17.572C28.454,16.666,28.454,14.334,26.721,13.429L12.841,6.171ZZM7.438,8.243C7.438,5.217,10.868,3.360,13.618,4.799L27.498,12.056C30.362,13.554,30.362,17.446,27.498,18.944L13.618,26.201C10.868,27.639,7.438,25.784,7.438,22.757L7.438,8.243ZZ" fill-rule="evenodd" clip-rule="evenodd" style="fill: rgb(239, 239, 239); fill-opacity: 1;" class="fills"/></g><g style="fill: rgb(0, 0, 0);"><path d="M51.981,43.492C47.729,48.495,40.190,50.145,35.346,46.235C30.506,42.324,30.764,34.791,35.015,29.789C37.863,26.437,42.742,23.876,47.094,23.632C47.474,23.610,47.856,23.608,48.237,23.623L56.615,13.764C58.337,11.783,61.376,11.523,63.428,13.182C65.481,14.841,65.785,17.800,64.109,19.819L55.734,29.677C55.820,30.038,55.888,30.404,55.937,30.771C56.501,34.988,54.829,40.140,51.981,43.492ZZM50.006,41.898C47.479,44.873,43.823,46.220,40.675,45.827C41.117,45.570,41.546,45.293,41.961,44.997C44.062,43.507,46.186,41.385,47.596,39.728C49.002,38.072,51.042,35.292,52.454,32.665C52.786,32.047,53.094,31.418,53.352,30.804C53.368,30.900,53.383,30.997,53.396,31.093C53.859,34.562,52.441,39.031,50.006,41.898ZZM37.988,44.302C37.306,44.505,37.068,44.376,36.983,44.310C36.897,44.241,36.725,44.034,36.802,43.344C36.877,42.661,37.182,41.767,37.681,40.737C38.673,38.689,40.280,36.436,41.599,34.883C42.921,33.328,45.216,30.989,47.430,29.278C48.546,28.417,49.570,27.771,50.393,27.442C50.803,27.278,51.097,27.219,51.286,27.215C51.341,27.213,51.396,27.218,51.449,27.232C51.460,27.235,51.470,27.239,51.479,27.246C51.488,27.254,51.495,27.264,51.499,27.274C51.523,27.322,51.539,27.373,51.546,27.426C51.578,27.607,51.575,27.900,51.486,28.323C51.305,29.173,50.845,30.274,50.183,31.504C48.872,33.942,46.942,36.577,45.621,38.132C44.301,39.684,42.329,41.645,40.451,42.975C39.505,43.647,38.660,44.102,37.988,44.302ZZM45.838,27.319C46.397,26.887,46.973,26.475,47.544,26.113C47.445,26.117,47.346,26.119,47.245,26.125C43.664,26.326,39.427,28.515,36.992,31.381C34.463,34.358,33.784,38.110,34.767,41.053C34.943,40.581,35.143,40.119,35.364,39.666C36.474,37.376,38.215,34.947,39.625,33.287C41.032,31.631,43.454,29.161,45.838,27.319ZZ" fill-rule="evenodd" clip-rule="evenodd" style="fill: rgb(243, 154, 162); fill-opacity: 1;" class="fills"/></g></svg>