<svg width="82" xmlns="http://www.w3.org/2000/svg" height="85" fill="none"><g style="fill: rgb(0, 0, 0);"><path d="M33.250,56.875C31.723,56.875,30.438,56.354,29.396,55.312C28.354,54.270,27.833,52.986,27.833,51.458L27.833,43.956L35.958,43.956L35.958,8.125L71.167,8.125L71.167,51.458C71.167,52.986,70.646,54.270,69.604,55.312C68.562,56.354,67.277,56.875,65.750,56.875L33.250,56.875ZZM65.750,54.167C66.517,54.167,67.161,53.907,67.681,53.387C68.201,52.867,68.460,52.224,68.458,51.458L68.458,10.833L38.667,10.833L38.667,43.956L63.042,43.956L63.042,51.458C63.042,52.226,63.302,52.869,63.822,53.389C64.342,53.909,64.984,54.168,65.750,54.167ZZM42.418,22.709L42.418,20.001L64.707,20.001L64.707,22.709L42.418,22.709ZZM42.418,30.209L42.418,27.500L64.707,27.500L64.707,30.209L42.418,30.209ZZM33.250,54.167L60.333,54.167L60.333,46.665L30.542,46.665L30.542,51.458C30.542,52.226,30.802,52.869,31.322,53.389C31.842,53.909,32.484,54.168,33.250,54.167ZZM33.250,54.167L30.542,54.167L60.333,54.167L33.250,54.167ZZ" style="fill: rgb(171, 188, 67); fill-opacity: 1;" class="fills"/></g><g style="fill: rgb(0, 0, 0);"><path d="M12.308,27.102C12.987,28.779,14.630,30.000,16.499,30.000C17.656,30.000,18.697,29.595,19.484,28.909C19.422,28.840,19.359,28.773,19.293,28.707C17.667,27.081,14.913,26.549,12.308,27.102ZZM20.536,30.632C19.381,31.527,17.960,32.009,16.499,32.000C13.709,32.000,11.338,30.174,10.403,27.722C9.561,28.102,8.810,28.604,8.207,29.207C7.826,29.588,7.657,29.927,7.607,30.242C7.556,30.559,7.607,30.978,7.894,31.552C7.991,31.745,8.234,32.072,8.631,32.507C9.010,32.922,9.471,33.376,9.941,33.813L9.955,33.825L14.175,38.045L14.187,38.058C14.258,38.135,14.333,38.214,14.409,38.294C15.337,35.822,17.704,34.000,20.500,34.000C20.702,34.000,20.902,34.010,21.099,34.027C21.136,32.830,20.949,31.655,20.536,30.632ZZM20.830,36.012C20.720,36.004,20.610,36.000,20.500,36.000C18.289,36.000,16.411,37.693,16.052,39.850C16.213,39.975,16.334,40.049,16.447,40.105L16.468,40.116C17.034,40.399,17.447,40.447,17.760,40.396C18.074,40.344,18.412,40.173,18.793,39.793C19.772,38.813,20.473,37.489,20.830,36.012ZZM12.069,38.768L9.232,35.931C8.998,36.141,8.762,36.349,8.524,36.555C7.694,37.270,6.587,38.169,5.540,38.842L5.527,38.850L5.514,38.857L5.410,38.920C4.856,39.250,4.070,39.720,3.680,40.392C3.486,40.706,3.424,41.083,3.507,41.442C3.601,41.875,3.907,42.492,4.707,43.292C5.507,44.093,6.125,44.399,6.558,44.492C6.965,44.580,7.299,44.500,7.608,44.320C8.280,43.930,8.750,43.144,9.080,42.590L9.142,42.485L9.150,42.473L9.158,42.460C9.830,41.413,10.730,40.306,11.445,39.476C11.651,39.238,11.859,39.002,12.069,38.768ZZM7.800,34.528C7.579,34.309,7.363,34.084,7.153,33.855C6.741,33.403,6.333,32.904,6.106,32.447C5.686,31.607,5.499,30.764,5.631,29.929C5.764,29.092,6.198,28.388,6.793,27.793C7.879,26.707,9.273,25.922,10.761,25.446C14.084,24.382,18.193,24.778,20.707,27.293C21.055,27.641,21.362,28.023,21.630,28.428C22.938,30.408,23.319,32.979,22.990,35.345C22.683,37.555,21.746,39.668,20.207,41.207C19.617,41.798,18.916,42.233,18.084,42.369C17.252,42.506,16.410,42.323,15.574,41.905L15.553,41.895C15.133,41.685,14.772,41.409,14.333,41.015C14.039,40.750,13.753,40.477,13.473,40.197C13.319,40.371,13.145,40.567,12.960,40.782C12.268,41.585,11.445,42.602,10.850,43.527L10.789,43.631C10.491,44.141,9.767,45.381,8.612,46.051C7.868,46.493,6.983,46.635,6.138,46.448C5.205,46.248,4.260,45.674,3.293,44.707C2.325,43.739,1.753,42.795,1.553,41.862C1.366,41.017,1.508,40.132,1.950,39.388C2.620,38.233,3.860,37.508,4.370,37.211L4.473,37.150C5.397,36.555,6.415,35.732,7.218,35.040C7.431,34.856,7.628,34.683,7.800,34.528ZZ" style="fill: rgb(238, 189, 83); fill-opacity: 1;" class="fills"/></g><g style="fill: rgb(0, 0, 0);"><path d="M65.000,71.000C63.577,68.569,60.493,67.688,58.000,69.000L58.000,64.000L56.000,64.000L56.000,69.000C53.507,67.688,50.423,68.569,49.000,71.000C47.000,74.000,52.000,83.000,54.000,83.000C56.000,83.000,56.000,82.000,57.000,82.000C58.000,82.000,58.000,83.000,60.000,83.000C62.000,83.000,67.000,74.000,65.000,71.000ZM63.250,74.380C62.630,76.850,61.410,79.120,59.700,81.000C59.500,81.000,59.270,80.900,59.100,80.750C57.875,79.760,56.125,79.760,54.900,80.750C54.730,80.900,54.500,81.000,54.300,81.000C52.585,79.126,51.365,76.854,50.750,74.390C50.500,73.660,50.450,72.870,50.660,72.120C51.239,71.088,52.317,70.435,53.500,70.400C54.060,70.410,54.610,70.540,55.110,70.790L56.000,71.240L58.000,71.240L58.890,70.790C59.390,70.540,59.940,70.410,60.500,70.400C61.680,70.430,62.760,71.080,63.340,72.110C63.550,72.860,63.500,73.650,63.250,74.380ZM56.000,66.000C50.380,69.070,49.110,64.780,49.110,64.780C49.110,64.780,51.770,61.190,56.000,66.000ZZ" style="fill: rgb(208, 160, 194); fill-opacity: 1;" class="fills"/></g><g style="fill: rgb(0, 0, 0);"><path d="M13.515,71.724C13.515,70.594,13.607,69.322,13.901,68.137C14.196,66.948,14.679,65.902,15.418,65.164C16.238,64.344,17.392,63.884,18.668,63.664C19.938,63.446,21.268,63.478,22.360,63.584C23.456,63.681,24.325,64.550,24.422,65.647C24.528,66.739,24.560,68.067,24.342,69.339C24.122,70.615,23.662,71.768,22.842,72.589C22.103,73.328,21.056,73.812,19.866,74.107C18.681,74.401,17.408,74.494,16.278,74.494C15.278,74.494,14.458,75.306,14.453,76.308C14.445,78.003,14.233,79.968,13.517,81.478C13.478,81.442,13.451,81.394,13.441,81.341C13.227,80.441,12.970,79.553,12.670,78.678C12.526,78.261,12.356,77.853,12.163,77.457C11.985,77.102,11.771,76.750,11.512,76.490C11.252,76.230,10.900,76.016,10.544,75.838C10.147,75.645,9.739,75.475,9.322,75.331C8.447,75.030,7.557,74.772,6.657,74.558C6.605,74.548,6.558,74.522,6.522,74.483C8.032,73.766,10.002,73.556,11.699,73.549C12.703,73.543,13.514,72.728,13.515,71.724ZZM14.357,64.103C13.356,65.104,12.777,66.438,12.445,67.776C12.112,69.120,12.014,70.523,12.015,71.726C12.013,71.903,11.870,72.046,11.693,72.049C9.922,72.056,7.677,72.269,5.861,73.136C5.179,73.462,4.894,74.134,5.035,74.771C5.168,75.367,5.650,75.856,6.302,76.015C7.097,76.209,8.019,76.460,8.821,76.745C9.222,76.887,9.581,77.033,9.873,77.179C10.175,77.331,10.360,77.459,10.451,77.551C10.542,77.641,10.671,77.826,10.822,78.128C10.968,78.420,11.114,78.778,11.256,79.179C11.540,79.980,11.790,80.902,11.984,81.696C12.143,82.348,12.632,82.831,13.229,82.963C13.866,83.105,14.538,82.820,14.864,82.138C15.731,80.325,15.944,78.084,15.954,76.315C15.954,76.141,16.101,75.994,16.277,75.994C17.479,75.994,18.883,75.896,20.227,75.563C21.567,75.230,22.901,74.651,23.903,73.649C25.023,72.529,25.571,71.040,25.820,69.593C26.070,68.142,26.029,66.667,25.915,65.501C25.749,63.691,24.315,62.257,22.505,62.091C21.339,61.978,19.865,61.937,18.413,62.186C16.966,62.435,15.477,62.984,14.357,64.103ZZM20.002,65.000C20.554,65.000,21.002,65.448,21.002,66.000C21.002,66.552,20.554,67.000,20.002,67.000C19.450,67.000,19.002,66.552,19.002,66.000C19.002,65.448,19.450,65.000,20.002,65.000ZZ" style="fill: rgb(140, 175, 212); fill-opacity: 1;" class="fills"/></g></svg>