<svg width="70" xmlns="http://www.w3.org/2000/svg" height="70" fill="none"><path d="M32.813,17.579L32.813,13.125L26.250,13.125C25.042,13.125,24.063,12.146,24.063,10.938C24.063,9.729,25.042,8.750,26.250,8.750L43.750,8.750C44.958,8.750,45.938,9.729,45.938,10.938C45.938,12.146,44.958,13.125,43.750,13.125L37.188,13.125L37.188,17.579C45.671,18.184,53.521,22.290,58.857,28.914C64.193,35.538,66.534,44.082,65.319,52.500L4.681,52.500C3.466,44.082,5.807,35.538,11.143,28.914C16.479,22.290,24.329,18.184,32.813,17.579ZZM8.750,48.125L61.250,48.125C61.250,33.628,49.497,21.875,35.000,21.875C20.503,21.875,8.750,33.628,8.750,48.125ZZM6.563,56.875L63.438,56.875C64.646,56.875,65.625,57.854,65.625,59.063C65.625,60.271,64.646,61.250,63.438,61.250L6.563,61.250C5.354,61.250,4.375,60.271,4.375,59.063C4.375,57.854,5.354,56.875,6.563,56.875ZZ" style="fill: rgb(0, 0, 0);" class="fills"/></svg>