<svg width="80" xmlns="http://www.w3.org/2000/svg" height="81" fill="none"><g style="fill: rgb(0, 0, 0);"><path d="M40.000,74.250C55.648,74.250,68.333,61.406,68.333,45.563C68.333,29.719,55.648,16.875,40.000,16.875C24.352,16.875,11.667,29.719,11.667,45.563C11.667,61.406,24.352,74.250,40.000,74.250ZZ" fill="none" style="fill: none;" class="fills"/><g fill="none" stroke-linejoin="round" class="strokes"><path d="M40.000,74.250C55.648,74.250,68.333,61.406,68.333,45.563C68.333,29.719,55.648,16.875,40.000,16.875C24.352,16.875,11.667,29.719,11.667,45.563C11.667,61.406,24.352,74.250,40.000,74.250ZZ" style="fill: none; stroke-width: 4; stroke: rgb(140, 175, 212); stroke-opacity: 1;" class="stroke-shape"/></g><path d="M30.000,6.750L50.000,6.750M40.000,32.063L40.000,45.563M53.333,45.563L40.000,45.563M40.000,6.750L40.000,13.500" fill="none" style="fill: none;" class="fills"/><g fill="none" stroke-linejoin="round" stroke-linecap="round" class="strokes"><path d="M30.000,6.750L50.000,6.750M40.000,32.063L40.000,45.563M53.333,45.563L40.000,45.563M40.000,6.750L40.000,13.500" style="fill: none; stroke-width: 4; stroke: rgb(140, 175, 212); stroke-opacity: 1;" class="stroke-shape"/></g></g><g style="fill: rgb(0, 0, 0);"><path d="M48.000,58.917C45.694,58.917,43.528,58.512,41.500,57.702C39.472,56.892,37.708,55.794,36.208,54.407C34.708,53.020,33.521,51.388,32.647,49.512C31.772,47.637,31.334,45.633,31.333,43.500C31.333,41.367,31.771,39.363,32.647,37.488C33.522,35.612,34.709,33.980,36.208,32.593C37.708,31.205,39.472,30.107,41.500,29.298C43.528,28.489,45.694,28.084,48.000,28.083C50.306,28.083,52.472,28.488,54.500,29.298C56.528,30.108,58.292,31.206,59.792,32.593C61.292,33.980,62.479,35.612,63.355,37.488C64.231,39.363,64.668,41.367,64.667,43.500C64.667,45.633,64.229,47.637,63.353,49.512C62.478,51.388,61.291,53.020,59.792,54.407C58.292,55.795,56.528,56.893,54.500,57.703C52.472,58.513,50.306,58.918,48.000,58.917ZZ" style="fill: rgb(246, 245, 233); fill-opacity: 1;" class="fills"/></g><g style="fill: rgb(0, 0, 0);"><path d="M33.088,33.092C34.534,30.031,37.615,28.079,41.000,28.079C44.385,28.079,47.466,30.031,48.912,33.092C53.369,32.894,57.373,35.799,58.569,40.097C59.765,44.396,57.836,48.951,53.917,51.083L53.917,56.087C53.917,57.585,53.917,58.833,53.783,59.823C53.643,60.870,53.333,61.815,52.573,62.573C51.815,63.333,50.870,63.643,49.823,63.783C48.833,63.917,47.583,63.917,46.087,63.917L35.913,63.917C34.417,63.917,33.167,63.917,32.177,63.783C31.130,63.643,30.185,63.333,29.427,62.573C28.667,61.815,28.357,60.870,28.217,59.823C28.083,58.833,28.083,57.585,28.083,56.087L28.083,51.085C24.164,48.952,22.235,44.397,23.431,40.099C24.627,35.800,28.631,32.896,33.088,33.092ZZM32.338,35.592C29.049,35.744,26.298,38.143,25.700,41.381C25.102,44.620,26.815,47.843,29.833,49.160C30.289,49.359,30.583,49.808,30.583,50.305L30.583,54.748L51.417,54.748L51.417,50.305C51.417,49.808,51.711,49.359,52.167,49.160C55.186,47.843,56.900,44.619,56.302,41.380C55.704,38.140,52.952,35.741,49.662,35.588C49.720,35.995,49.750,36.410,49.750,36.832L49.750,37.667C49.750,38.357,49.190,38.917,48.500,38.917C47.810,38.917,47.250,38.357,47.250,37.667L47.250,36.833C47.252,35.175,46.594,33.584,45.421,32.412C44.249,31.239,42.658,30.582,41.000,30.583C37.549,30.585,34.752,33.382,34.750,36.833L34.750,37.667C34.750,38.357,34.190,38.917,33.500,38.917C32.810,38.917,32.250,38.357,32.250,37.667L32.250,36.833C32.250,36.412,32.280,35.997,32.338,35.592ZZM51.413,57.250L30.587,57.250C30.593,58.200,30.617,58.917,30.695,59.492C30.798,60.260,30.977,60.590,31.195,60.807C31.412,61.023,31.740,61.202,32.508,61.307C33.313,61.413,34.393,61.417,36.000,61.417L46.000,61.417C47.607,61.417,48.687,61.413,49.492,61.305C50.260,61.202,50.590,61.023,50.807,60.805C51.023,60.588,51.202,60.260,51.307,59.492C51.383,58.915,51.407,58.198,51.413,57.250ZZ" fill-rule="evenodd" clip-rule="evenodd" style="fill: rgb(171, 188, 67); fill-opacity: 1;" class="fills"/></g></svg>