<svg width="70" xmlns="http://www.w3.org/2000/svg" height="70" fill="none"><g style="fill: rgb(0, 0, 0);"><path d="M42.292,33.542C37.188,39.031,32.083,52.500,32.083,52.500C32.083,52.500,24.792,33.542,17.500,29.167" fill="none" style="fill: none;" class="fills"/><g fill="none" stroke-linecap="round" stroke-linejoin="round" class="strokes"><path d="M42.292,33.542C37.188,39.031,32.083,52.500,32.083,52.500C32.083,52.500,24.792,33.542,17.500,29.167" style="fill: none; stroke-width: 1.5; stroke: rgb(0, 0, 0); stroke-opacity: 1;" class="stroke-shape"/></g><path d="M52.544,22.546L53.410,31.529C53.970,37.357,49.601,42.545,43.773,43.108C38.057,43.657,32.877,39.477,32.325,33.760C32.061,31.014,32.898,28.275,34.652,26.146C36.407,24.017,38.936,22.673,41.682,22.409L51.260,21.487C51.907,21.426,52.481,21.900,52.544,22.546ZZ" fill="none" style="fill: none;" class="fills"/><g fill="none" stroke-linecap="round" stroke-linejoin="round" class="strokes"><path d="M52.544,22.546L53.410,31.529C53.970,37.357,49.601,42.545,43.773,43.108C38.057,43.657,32.877,39.477,32.325,33.760C32.061,31.014,32.898,28.275,34.652,26.146C36.407,24.017,38.936,22.673,41.682,22.409L51.260,21.487C51.907,21.426,52.481,21.900,52.544,22.546ZZ" style="fill: none; stroke-width: 1.5; stroke: rgb(0, 0, 0); stroke-opacity: 1;" class="stroke-shape"/></g><path d="M35.000,64.167C51.109,64.167,64.167,51.109,64.167,35.000C64.167,18.891,51.109,5.833,35.000,5.833C18.891,5.833,5.833,18.891,5.833,35.000C5.833,51.109,18.891,64.167,35.000,64.167ZZ" fill="none" style="fill: none;" class="fills"/><g fill="none" stroke-linecap="round" stroke-linejoin="round" class="strokes"><path d="M35.000,64.167C51.109,64.167,64.167,51.109,64.167,35.000C64.167,18.891,51.109,5.833,35.000,5.833C18.891,5.833,5.833,18.891,5.833,35.000C5.833,51.109,18.891,64.167,35.000,64.167ZZ" style="fill: none; stroke-width: 1.5; stroke: rgb(0, 0, 0); stroke-opacity: 1;" class="stroke-shape"/></g></g></svg>