<svg width="50" xmlns="http://www.w3.org/2000/svg" height="50" fill="none"><g style="fill: rgb(0, 0, 0);"><path d="M19.712,5.769C13.644,5.769,8.748,10.346,7.933,16.165C3.625,17.315,0.360,21.088,0.360,25.721C0.360,30.860,4.362,34.990,9.375,35.577C10.773,39.485,14.363,42.308,18.750,42.308C21.754,42.308,24.221,40.783,26.083,38.702C27.612,39.885,29.413,40.746,31.490,40.746C35.448,40.746,38.706,38.112,39.904,34.554C39.965,34.556,40.023,34.554,40.085,34.554C45.331,34.554,49.638,30.285,49.638,25.060C49.638,20.602,46.431,16.992,42.248,15.985C40.902,12.281,37.460,9.556,33.292,9.556C31.731,9.556,30.338,10.037,29.027,10.696C26.815,7.846,23.596,5.769,19.712,5.769ZZM19.712,9.615C22.748,9.606,25.543,11.269,26.983,13.942L28.004,15.925L29.808,14.542C30.814,13.792,32.039,13.392,33.294,13.402C36.117,13.402,38.442,15.337,39.002,17.908L39.304,19.292L40.685,19.412C43.585,19.703,45.794,22.144,45.794,25.060C45.794,28.185,43.271,30.710,40.083,30.710C39.696,30.710,39.313,30.662,38.942,30.588L36.838,30.167L36.660,32.271C36.415,34.860,34.215,36.900,31.490,36.900C29.840,36.900,28.413,36.150,27.463,34.977L25.662,32.752L24.279,35.277C23.215,37.196,21.148,38.462,18.750,38.462C15.773,38.487,13.199,36.393,12.619,33.473L12.319,31.912L10.698,31.912C10.594,31.912,10.554,31.960,10.517,31.971C7.012,31.971,4.206,29.158,4.206,25.721C4.206,22.523,6.648,19.938,9.796,19.590L11.479,19.412L11.479,17.669C11.508,13.200,15.160,9.615,19.712,9.615ZZ" style="fill: rgb(140, 175, 212); fill-opacity: 1;" class="fills"/></g></svg>