<svg width="50" xmlns="http://www.w3.org/2000/svg" height="50" fill="none"><g style="fill: rgb(0, 0, 0);"><path d="M37.500,39.583C36.910,39.583,36.415,39.383,36.015,38.983C35.615,38.583,35.415,38.089,35.417,37.500C35.417,36.910,35.617,36.415,36.017,36.015C36.417,35.615,36.911,35.415,37.500,35.417C38.090,35.417,38.585,35.617,38.985,36.017C39.385,36.417,39.585,36.911,39.583,37.500C39.583,38.090,39.383,38.585,38.983,38.985C38.583,39.385,38.089,39.585,37.500,39.583ZZM14.583,45.833C13.993,45.833,13.498,45.633,13.098,45.233C12.698,44.833,12.499,44.339,12.500,43.750C12.500,43.160,12.700,42.665,13.100,42.265C13.500,41.865,13.994,41.665,14.583,41.667C15.174,41.667,15.669,41.867,16.069,42.267C16.469,42.667,16.668,43.161,16.667,43.750C16.667,44.340,16.467,44.835,16.067,45.235C15.667,45.635,15.172,45.835,14.583,45.833ZZM12.500,39.583C11.910,39.583,11.415,39.383,11.015,38.983C10.615,38.583,10.415,38.089,10.417,37.500C10.417,36.910,10.617,36.415,11.017,36.015C11.417,35.615,11.911,35.415,12.500,35.417L31.250,35.417C31.840,35.417,32.335,35.617,32.735,36.017C33.135,36.417,33.335,36.911,33.333,37.500C33.333,38.090,33.133,38.585,32.733,38.985C32.333,39.385,31.839,39.585,31.250,39.583L12.500,39.583ZZM20.833,45.833C20.243,45.833,19.748,45.633,19.348,45.233C18.948,44.833,18.749,44.339,18.750,43.750C18.750,43.160,18.950,42.665,19.350,42.265C19.750,41.865,20.244,41.665,20.833,41.667L35.417,41.667C36.007,41.667,36.502,41.867,36.902,42.267C37.302,42.667,37.501,43.161,37.500,43.750C37.500,44.340,37.300,44.835,36.900,45.235C36.500,45.635,36.006,45.835,35.417,45.833L20.833,45.833ZZM15.625,33.333C12.465,33.333,9.765,32.213,7.525,29.973C5.285,27.733,4.165,25.033,4.167,21.875C4.167,18.993,5.122,16.476,7.031,14.323C8.941,12.170,11.302,10.903,14.115,10.521C15.226,8.542,16.745,6.987,18.673,5.858C20.601,4.729,22.710,4.165,25.000,4.167C28.125,4.167,30.842,5.165,33.152,7.163C35.462,9.160,36.859,11.651,37.344,14.635C39.740,14.844,41.753,15.833,43.385,17.604C45.017,19.375,45.833,21.493,45.833,23.958C45.833,26.563,44.922,28.776,43.100,30.600C41.278,32.424,39.064,33.335,36.458,33.333L15.625,33.333ZZM15.625,29.167L36.458,29.167C37.917,29.167,39.149,28.663,40.156,27.656C41.163,26.649,41.667,25.417,41.667,23.958C41.667,22.500,41.163,21.267,40.156,20.260C39.149,19.253,37.917,18.750,36.458,18.750L33.333,18.750L33.333,16.667C33.333,14.375,32.517,12.413,30.885,10.781C29.253,9.149,27.292,8.333,25.000,8.333C23.333,8.333,21.814,8.785,20.442,9.688C19.069,10.590,18.037,11.806,17.344,13.333L16.823,14.583L15.521,14.583C13.542,14.653,11.849,15.391,10.444,16.798C9.038,18.205,8.335,19.897,8.333,21.875C8.333,23.889,9.045,25.608,10.469,27.031C11.892,28.455,13.611,29.167,15.625,29.167ZZM25.000,18.750Z" style="fill: rgb(140, 175, 212); fill-opacity: 1;" class="fills"/></g></svg>