<svg width="50" xmlns="http://www.w3.org/2000/svg" height="50" fill="none"><g style="fill: rgb(0, 0, 0);"><path d="M20.781,9.549C20.891,9.549,21.001,9.549,21.115,9.549C22.389,9.569,23.549,9.842,24.708,10.412C24.790,10.449,24.871,10.486,24.956,10.524C25.496,10.783,25.857,11.084,26.259,11.543C26.473,11.767,26.694,11.932,26.946,12.107C27.881,12.781,28.629,13.804,28.988,14.948C28.992,15.189,28.993,15.430,28.988,15.670C29.133,15.685,29.133,15.685,29.281,15.701C30.079,15.791,30.819,15.933,31.587,16.186C31.816,16.259,32.048,16.323,32.281,16.380C33.659,16.740,34.874,17.620,35.994,18.509C36.179,18.653,36.366,18.792,36.555,18.928C38.209,20.123,39.287,21.583,40.093,23.516C40.163,23.682,40.236,23.847,40.310,24.012C40.346,24.091,40.382,24.171,40.418,24.253C40.462,24.349,40.462,24.349,40.506,24.447C40.579,24.689,40.574,24.903,40.564,25.155C40.644,25.158,40.724,25.162,40.807,25.166C42.466,25.270,43.663,25.868,44.844,27.113C44.911,27.181,44.978,27.248,45.047,27.318C46.636,29.038,47.343,31.785,47.471,34.124C47.407,36.279,46.269,38.228,44.888,39.737C44.649,39.992,44.649,39.992,44.456,40.263C44.243,40.539,44.017,40.749,43.756,40.973C43.670,41.047,43.585,41.122,43.497,41.198C42.781,41.771,42.063,42.219,41.239,42.597C41.141,42.641,41.044,42.686,40.943,42.732C39.892,43.198,38.886,43.511,37.743,43.299C37.322,43.063,37.046,42.845,36.868,42.371C36.770,41.707,36.885,41.164,37.257,40.619C37.457,40.361,37.641,40.219,37.938,40.103C38.158,40.085,38.379,40.075,38.600,40.071C40.108,40.009,41.371,39.149,42.412,38.041C42.502,37.927,42.590,37.813,42.678,37.697C42.751,37.607,42.824,37.516,42.899,37.423C42.963,37.423,43.027,37.423,43.093,37.423C43.117,37.369,43.140,37.315,43.164,37.260C43.295,36.997,43.445,36.754,43.602,36.508C44.354,35.314,44.620,34.366,44.395,32.908C44.243,32.135,43.995,31.419,43.683,30.702C43.652,30.629,43.620,30.557,43.588,30.482C43.382,30.033,43.152,29.723,42.802,29.381C42.717,29.254,42.717,29.254,42.631,29.124C42.143,28.548,41.604,28.325,40.880,28.277C40.519,28.262,40.159,28.254,39.799,28.247C39.160,28.220,38.703,28.199,38.249,27.690C37.959,27.282,37.903,26.849,37.822,26.358C37.498,24.453,36.762,22.822,35.245,21.680C35.000,21.503,34.751,21.335,34.500,21.169C34.167,20.949,33.866,20.699,33.560,20.438C32.611,19.675,31.495,19.350,30.355,19.048C30.058,18.969,30.058,18.969,29.767,18.866C29.150,18.838,28.535,18.848,27.918,18.866C27.799,18.869,27.680,18.873,27.557,18.876C26.305,18.984,25.165,19.575,24.027,20.103C23.952,20.137,23.878,20.172,23.800,20.207C22.713,20.711,21.951,21.444,21.145,22.349C21.012,22.474,21.012,22.474,20.817,22.474C20.778,22.567,20.778,22.567,20.738,22.661C20.623,22.887,20.623,22.887,20.483,23.028C20.043,23.513,19.911,24.224,19.745,24.853C19.579,25.450,19.349,25.908,18.902,26.327C18.487,26.543,18.159,26.582,17.704,26.495C17.420,26.333,17.207,26.187,16.994,25.930C16.166,25.146,14.484,24.863,13.404,24.892C12.215,25.073,10.987,25.496,10.117,26.392C10.056,26.447,9.995,26.502,9.933,26.558C9.313,27.148,9.038,27.819,8.731,28.628C8.682,28.750,8.633,28.873,8.582,28.999C7.762,31.093,7.380,33.167,8.053,35.389C9.181,38.083,11.396,39.158,13.847,40.228C13.930,40.265,14.013,40.301,14.099,40.339C14.257,40.407,14.415,40.475,14.574,40.542C15.121,40.779,15.535,41.009,15.844,41.566C15.977,42.045,15.991,42.407,15.856,42.887C15.680,43.224,15.459,43.449,15.145,43.647C13.879,43.959,12.699,43.141,11.587,42.577C11.364,42.466,11.140,42.358,10.915,42.251C10.026,41.822,9.223,41.382,8.463,40.722C8.371,40.645,8.279,40.568,8.185,40.489C7.304,39.744,6.657,39.059,6.110,38.009C6.061,37.918,6.011,37.826,5.961,37.732C5.486,36.838,5.130,35.974,4.991,34.955C4.974,34.834,4.974,34.834,4.956,34.711C4.870,34.105,4.797,33.499,4.767,32.887C4.761,32.809,4.756,32.731,4.751,32.651C4.731,32.091,4.797,31.550,4.882,30.999C4.892,30.930,4.902,30.862,4.912,30.792C5.031,30.081,5.290,29.430,5.545,28.763C5.587,28.651,5.629,28.538,5.672,28.423C5.800,28.084,5.930,27.747,6.062,27.410C6.125,27.241,6.125,27.241,6.190,27.070C6.645,25.908,7.285,24.989,8.159,24.143C8.226,24.077,8.294,24.011,8.363,23.943C9.570,22.784,9.570,22.784,10.117,22.784C10.111,22.681,10.105,22.578,10.100,22.472C10.025,20.440,10.429,18.362,11.187,16.495C11.215,16.425,11.243,16.355,11.271,16.283C11.712,15.207,12.278,14.356,13.035,13.505C13.118,13.409,13.201,13.313,13.287,13.214C14.560,11.795,16.010,10.862,17.704,10.103C17.801,10.059,17.801,10.059,17.900,10.013C18.827,9.614,19.789,9.547,20.781,9.549ZZM16.148,14.536C16.069,14.607,15.991,14.678,15.910,14.751C15.659,14.983,15.416,15.221,15.175,15.464C15.098,15.540,15.022,15.616,14.943,15.694C13.758,16.965,13.352,18.822,13.053,20.528C13.040,20.603,13.027,20.677,13.013,20.754C12.953,21.122,12.935,21.396,13.035,21.753C13.115,21.763,13.115,21.763,13.196,21.774C14.205,21.913,15.200,22.068,16.187,22.334C16.596,22.444,16.995,22.521,17.412,22.577C17.461,22.482,17.509,22.386,17.559,22.287C17.928,21.569,18.275,20.946,18.872,20.412C18.935,20.354,18.998,20.295,19.063,20.235C19.195,20.113,19.327,19.991,19.459,19.871C19.640,19.700,19.806,19.522,19.972,19.336C21.478,17.744,24.086,16.476,26.167,16.082C26.138,15.464,25.881,15.074,25.486,14.639C25.274,14.470,25.057,14.321,24.831,14.175C24.613,14.022,24.453,13.858,24.270,13.660C23.189,12.618,21.432,12.495,20.049,12.560C18.676,12.678,17.164,13.581,16.148,14.536ZZ" style="fill: rgb(143, 177, 211);" class="fills"/><path d="M20.781,9.549C20.891,9.549,21.001,9.549,21.115,9.549C22.389,9.569,23.549,9.842,24.708,10.412C24.790,10.449,24.871,10.486,24.956,10.524C25.496,10.783,25.857,11.084,26.259,11.543C26.473,11.767,26.694,11.932,26.946,12.107C27.881,12.781,28.629,13.804,28.988,14.948C28.988,15.187,28.988,15.425,28.988,15.670C29.502,15.738,30.016,15.806,30.545,15.876C30.545,15.910,30.545,15.944,30.545,15.979C29.164,15.979,27.784,15.979,26.362,15.979C26.266,15.775,26.266,15.775,26.167,15.567C26.009,15.391,25.847,15.219,25.681,15.052C25.623,14.986,25.565,14.920,25.505,14.852C25.256,14.603,24.989,14.395,24.712,14.183C24.533,14.036,24.386,13.882,24.228,13.711C23.156,12.713,21.397,12.600,20.049,12.663C18.677,12.781,17.163,13.684,16.148,14.639C16.063,14.717,15.977,14.795,15.889,14.876C15.418,15.305,15.418,15.305,15.013,15.801C14.970,15.860,14.927,15.919,14.883,15.979C14.819,15.979,14.755,15.979,14.689,15.979C14.663,16.034,14.638,16.089,14.612,16.146C14.525,16.327,14.435,16.507,14.343,16.686C13.509,18.358,13.212,20.102,12.938,21.959C12.834,21.987,12.729,22.016,12.622,22.045C12.486,22.083,12.350,22.121,12.214,22.159C12.111,22.187,12.111,22.187,12.006,22.215C11.666,22.287,11.666,22.287,11.381,22.474C11.219,22.478,11.057,22.479,10.895,22.474C10.895,22.542,10.895,22.610,10.895,22.680C10.784,22.671,10.784,22.671,10.670,22.661C10.354,22.684,10.327,22.758,10.117,22.990C9.855,23.061,9.855,23.061,9.630,23.093C9.764,22.938,9.764,22.938,9.922,22.784C9.986,22.784,10.051,22.784,10.117,22.784C10.111,22.681,10.105,22.578,10.100,22.472C10.025,20.440,10.429,18.362,11.187,16.495C11.215,16.425,11.243,16.355,11.271,16.283C11.712,15.207,12.278,14.356,13.035,13.505C13.118,13.409,13.201,13.313,13.287,13.214C14.560,11.795,16.010,10.862,17.704,10.103C17.769,10.073,17.834,10.044,17.900,10.013C18.827,9.614,19.789,9.547,20.781,9.549ZZ" style="fill: rgb(237, 190, 89);" class="fills"/><path d="M31.128,30.515C31.990,31.181,32.214,32.438,32.442,33.466C32.501,33.727,32.560,33.987,32.619,34.247C32.647,34.370,32.676,34.493,32.704,34.619C32.792,34.991,32.893,35.355,33.001,35.722C33.438,37.307,33.843,39.402,33.146,40.942C32.704,41.713,32.147,42.447,31.313,42.730C30.212,42.939,29.157,42.854,28.187,42.231C27.403,41.648,26.811,40.888,26.608,39.878C26.580,39.643,26.566,39.412,26.556,39.175C26.549,39.093,26.542,39.011,26.534,38.926C26.457,37.493,27.073,36.147,27.658,34.894C27.860,34.462,28.051,34.025,28.239,33.586C28.295,33.455,28.351,33.324,28.407,33.194C28.491,33.000,28.574,32.806,28.656,32.612C29.299,31.093,29.299,31.093,29.937,30.631C30.348,30.480,30.699,30.403,31.128,30.515ZZ" style="fill: rgb(142, 177, 212);" class="fills"/><path d="M21.887,37.216C22.766,37.729,23.119,39.032,23.444,39.968C23.528,40.206,23.612,40.444,23.697,40.682C23.737,40.795,23.777,40.909,23.818,41.026C23.959,41.421,24.107,41.813,24.258,42.204C24.499,42.836,24.708,43.474,24.903,44.124C24.932,44.210,24.961,44.297,24.991,44.386C25.306,45.362,25.312,46.310,24.940,47.271C24.711,47.704,24.403,47.963,24.027,48.247C23.961,48.305,23.895,48.362,23.827,48.421C23.157,48.964,22.423,49.130,21.588,49.040C20.551,48.810,19.469,48.180,18.774,47.320C18.124,46.136,18.136,44.699,18.440,43.396C18.638,42.607,18.943,41.872,19.268,41.134C19.418,40.791,19.561,40.444,19.705,40.097C19.733,40.029,19.761,39.962,19.790,39.892C19.933,39.546,20.070,39.198,20.198,38.845C20.223,38.775,20.249,38.705,20.275,38.633C20.345,38.440,20.413,38.246,20.481,38.053C20.624,37.728,20.751,37.545,21.012,37.320C21.336,37.205,21.547,37.180,21.887,37.216ZZ" style="fill: rgb(142, 177, 212);" class="fills"/><path d="M21.206,0.619C21.610,1.098,21.634,1.445,21.605,2.077C21.598,2.185,21.591,2.292,21.583,2.403C21.574,2.572,21.574,2.572,21.565,2.743C21.545,3.100,21.521,3.457,21.498,3.814C21.484,4.054,21.471,4.293,21.457,4.532C21.443,4.761,21.428,4.990,21.413,5.219C21.403,5.379,21.403,5.379,21.394,5.543C21.339,6.286,21.242,6.832,20.768,7.410C20.390,7.751,20.057,7.769,19.580,7.760C19.158,7.707,18.915,7.499,18.649,7.159C18.254,6.496,18.402,5.795,18.482,5.052C18.500,4.822,18.516,4.592,18.531,4.362C18.539,4.245,18.548,4.127,18.556,4.006C18.574,3.707,18.587,3.410,18.597,3.111C18.600,3.025,18.604,2.938,18.607,2.850C18.613,2.681,18.618,2.513,18.622,2.345C18.644,1.750,18.716,1.128,19.103,0.663C19.730,0.078,20.546,0.055,21.206,0.619ZZ" style="fill: rgb(237, 189, 85);" class="fills"/><path d="M4.906,19.034C5.007,19.031,5.108,19.028,5.211,19.025C5.819,19.024,6.311,19.092,6.809,19.485C7.092,19.835,7.220,20.163,7.241,20.625C7.196,21.053,7.135,21.294,6.907,21.649C6.473,22.004,6.132,22.174,5.588,22.191C5.498,22.194,5.408,22.197,5.316,22.200C5.219,22.203,5.123,22.206,5.023,22.208C4.923,22.211,4.824,22.214,4.721,22.217C4.510,22.223,4.299,22.228,4.088,22.234C3.766,22.242,3.444,22.253,3.121,22.264C2.916,22.269,2.711,22.274,2.506,22.279C2.410,22.283,2.314,22.286,2.215,22.290C1.692,22.300,1.326,22.277,0.875,21.959C0.478,21.503,0.352,21.148,0.362,20.522C0.422,20.049,0.689,19.769,1.022,19.475C1.472,19.215,1.860,19.184,2.365,19.149C2.510,19.138,2.510,19.138,2.658,19.127C3.407,19.074,4.156,19.045,4.906,19.034ZZ" style="fill: rgb(237, 189, 84);" class="fills"/><path d="M33.254,5.845C33.680,6.074,33.937,6.339,34.144,6.804C34.234,7.410,34.144,7.817,33.852,8.351C33.183,9.183,32.357,9.854,31.549,10.526C31.312,10.722,31.312,10.722,31.092,10.986C30.755,11.317,30.430,11.532,29.960,11.556C29.387,11.509,28.988,11.271,28.611,10.805C28.458,10.398,28.420,10.019,28.502,9.588C28.753,9.028,29.039,8.682,29.493,8.299C29.549,8.251,29.604,8.202,29.661,8.152C30.052,7.814,30.450,7.486,30.856,7.169C31.042,7.013,31.042,7.013,31.188,6.784C31.233,6.723,31.277,6.661,31.323,6.598C31.387,6.598,31.451,6.598,31.518,6.598C31.536,6.538,31.554,6.479,31.572,6.418C31.939,5.809,32.622,5.594,33.254,5.845ZZ" style="fill: rgb(237, 190, 88);" class="fills"/><path d="M7.490,5.052C7.964,5.284,8.243,5.655,8.560,6.082C8.753,6.270,8.951,6.450,9.150,6.630C9.386,6.848,9.603,7.085,9.825,7.320C9.956,7.440,10.088,7.561,10.220,7.680C10.657,8.082,11.027,8.441,11.120,9.070C11.152,9.666,11.031,9.999,10.665,10.454C10.360,10.769,10.111,10.812,9.697,10.870C8.948,10.776,8.480,10.250,7.975,9.694C7.796,9.499,7.612,9.320,7.417,9.143C7.354,9.085,7.291,9.027,7.226,8.967C7.105,8.855,6.983,8.744,6.861,8.633C6.703,8.488,6.546,8.342,6.390,8.196C6.340,8.151,6.289,8.105,6.238,8.059C5.816,7.660,5.611,7.267,5.503,6.678C5.502,6.150,5.610,5.861,5.934,5.464C6.410,5.007,6.872,4.931,7.490,5.052ZZ" style="fill: rgb(237, 189, 85);" class="fills"/><path d="M21.206,0.619C21.610,1.098,21.634,1.445,21.605,2.077C21.598,2.185,21.591,2.292,21.583,2.403C21.574,2.572,21.574,2.572,21.565,2.743C21.545,3.100,21.521,3.457,21.498,3.814C21.484,4.054,21.471,4.293,21.457,4.532C21.443,4.761,21.428,4.990,21.413,5.219C21.403,5.379,21.403,5.379,21.394,5.543C21.339,6.286,21.242,6.832,20.768,7.410C20.390,7.751,20.057,7.769,19.580,7.760C19.158,7.707,18.915,7.499,18.649,7.159C18.258,6.502,18.393,5.790,18.482,5.052C18.515,5.052,18.547,5.052,18.580,5.052C18.589,5.214,18.589,5.214,18.598,5.379C18.606,5.521,18.614,5.663,18.622,5.805C18.626,5.877,18.630,5.948,18.634,6.021C18.653,6.337,18.679,6.605,18.774,6.907C18.871,6.941,18.967,6.975,19.066,7.010C19.110,7.061,19.154,7.112,19.200,7.165C19.422,7.382,19.540,7.409,19.844,7.423C20.197,7.402,20.434,7.336,20.720,7.113C21.045,6.201,21.082,5.132,21.158,4.164C21.176,3.942,21.195,3.720,21.214,3.498C21.424,2.225,21.424,2.225,21.185,1.065C20.763,0.674,20.386,0.592,19.838,0.604C19.591,0.623,19.454,0.658,19.261,0.825C18.769,1.655,18.845,2.669,18.813,3.617C18.809,3.714,18.805,3.812,18.802,3.912C18.799,4.000,18.796,4.087,18.793,4.178C18.774,4.441,18.731,4.690,18.677,4.948C18.645,4.948,18.613,4.948,18.580,4.948C18.568,4.164,18.580,3.381,18.610,2.597C18.612,2.515,18.615,2.434,18.617,2.351C18.643,1.756,18.717,1.128,19.103,0.663C19.730,0.078,20.546,0.055,21.206,0.619ZZ" style="fill: rgb(236, 206, 139);" class="fills"/><path d="M4.906,19.034C5.007,19.031,5.108,19.028,5.211,19.025C5.854,19.024,6.258,19.132,6.809,19.485C6.809,19.587,6.809,19.689,6.809,19.794C6.729,19.727,6.649,19.660,6.566,19.591C6.207,19.338,5.866,19.325,5.444,19.334C5.332,19.334,5.332,19.334,5.219,19.334C5.063,19.335,4.906,19.336,4.750,19.339C4.514,19.343,4.278,19.343,4.043,19.343C2.432,19.307,2.432,19.307,0.973,19.897C0.723,20.326,0.719,20.847,0.681,21.340C0.745,21.340,0.809,21.340,0.875,21.340C0.908,21.510,0.940,21.680,0.973,21.856C1.308,21.936,1.617,21.971,1.961,21.970C2.058,21.970,2.156,21.970,2.256,21.970C2.412,21.970,2.412,21.970,2.571,21.969C2.732,21.969,2.732,21.969,2.896,21.968C3.238,21.968,3.580,21.967,3.921,21.965C4.154,21.965,4.386,21.964,4.618,21.964C5.186,21.963,5.755,21.961,6.323,21.959C6.018,22.174,5.936,22.193,5.588,22.203C5.453,22.207,5.453,22.207,5.316,22.212C5.219,22.214,5.123,22.216,5.023,22.219C4.874,22.223,4.874,22.223,4.721,22.227C4.510,22.232,4.299,22.237,4.088,22.242C3.766,22.249,3.444,22.259,3.121,22.269C2.916,22.274,2.711,22.278,2.506,22.283C2.362,22.288,2.362,22.288,2.215,22.293C1.692,22.301,1.325,22.276,0.875,21.959C0.478,21.503,0.352,21.148,0.362,20.522C0.422,20.049,0.689,19.769,1.022,19.475C1.472,19.215,1.860,19.184,2.365,19.149C2.510,19.138,2.510,19.138,2.658,19.127C3.407,19.074,4.156,19.045,4.906,19.034ZZ" style="fill: rgb(240, 220, 173);" class="fills"/><path d="M21.206,0.619C21.567,1.028,21.621,1.301,21.612,1.861C21.600,2.096,21.587,2.330,21.571,2.564C21.565,2.685,21.558,2.805,21.552,2.928C21.536,3.224,21.518,3.519,21.498,3.814C21.466,3.814,21.434,3.814,21.401,3.814C21.401,3.739,21.401,3.664,21.401,3.586C21.400,3.243,21.394,2.901,21.389,2.558C21.389,2.439,21.389,2.321,21.389,2.199C21.393,1.589,21.393,1.589,21.178,1.043C20.715,0.622,20.237,0.572,19.650,0.619C19.332,0.710,19.274,0.802,19.097,1.102C18.800,1.895,18.841,2.775,18.813,3.617C18.809,3.714,18.805,3.812,18.802,3.912C18.799,4.000,18.796,4.087,18.793,4.178C18.774,4.441,18.731,4.690,18.677,4.948C18.645,4.948,18.613,4.948,18.580,4.948C18.568,4.164,18.580,3.381,18.610,2.597C18.612,2.515,18.615,2.434,18.617,2.351C18.643,1.756,18.717,1.128,19.103,0.663C19.730,0.078,20.546,0.055,21.206,0.619ZZ" style="fill: rgb(240, 220, 173);" class="fills"/><path d="M39.202,40.103C39.202,40.205,39.202,40.307,39.202,40.412C39.098,40.416,39.098,40.416,38.992,40.420C38.371,40.459,37.960,40.541,37.451,40.928C37.419,40.996,37.387,41.064,37.354,41.134C37.290,41.134,37.226,41.134,37.160,41.134C37.095,41.508,37.031,41.882,36.965,42.268C37.093,42.302,37.222,42.336,37.354,42.371C37.518,42.629,37.518,42.629,37.646,42.887C37.800,43.050,37.965,43.012,38.178,43.022C38.266,43.027,38.353,43.031,38.443,43.035C38.535,43.039,38.627,43.044,38.722,43.048C38.861,43.054,38.861,43.054,39.002,43.061C39.231,43.072,39.460,43.083,39.689,43.093C39.120,43.413,38.422,43.504,37.793,43.338C37.346,43.123,37.073,42.853,36.868,42.371C36.771,41.798,36.855,41.307,37.130,40.804C37.679,40.003,38.317,40.040,39.202,40.103ZZ" style="fill: rgb(192, 208, 227);" class="fills"/><path d="M6.809,19.794C6.906,19.828,7.002,19.862,7.101,19.897C7.266,20.420,7.258,20.864,7.077,21.372C6.850,21.741,6.686,21.918,6.277,22.017C5.816,22.077,5.362,22.075,4.898,22.072C4.800,22.072,4.701,22.072,4.600,22.071C4.286,22.071,3.973,22.070,3.660,22.068C3.447,22.068,3.234,22.067,3.021,22.067C2.501,22.066,1.980,22.064,1.459,22.062C1.459,22.028,1.459,21.994,1.459,21.959C3.875,21.733,3.875,21.733,5.010,21.759C5.664,21.773,6.197,21.698,6.809,21.443C6.809,20.899,6.809,20.355,6.809,19.794ZZ" style="fill: rgb(232, 196, 116);" class="fills"/><path d="M5.642,28.557C5.761,28.934,5.706,29.107,5.618,29.491C5.593,29.601,5.569,29.710,5.543,29.823C5.447,30.206,5.447,30.206,5.373,30.425C5.132,31.154,5.114,31.844,5.123,32.612C5.125,32.821,5.125,33.030,5.124,33.239C5.128,33.978,5.172,34.680,5.309,35.406C5.350,35.671,5.357,35.917,5.350,36.186C5.110,35.804,5.068,35.443,5.004,35.000C4.991,34.916,4.978,34.833,4.966,34.747C4.875,34.128,4.798,33.512,4.767,32.887C4.761,32.809,4.756,32.731,4.751,32.651C4.700,31.244,5.051,29.809,5.642,28.557ZZ" style="fill: rgb(195, 211, 227);" class="fills"/><path d="M10.798,8.454C10.862,8.488,10.926,8.522,10.992,8.557C11.126,8.981,11.161,9.351,11.089,9.794C10.890,10.212,10.646,10.527,10.269,10.773C9.768,10.877,9.403,10.895,8.955,10.619C8.512,10.299,8.147,9.899,7.782,9.485C7.878,9.485,7.975,9.485,8.074,9.485C8.214,9.635,8.214,9.635,8.366,9.832C8.870,10.394,9.486,10.400,10.184,10.425C10.258,10.421,10.332,10.417,10.409,10.412C10.409,10.242,10.409,10.072,10.409,9.897C10.537,9.863,10.665,9.829,10.798,9.794C10.798,9.352,10.798,8.909,10.798,8.454ZZ" style="fill: rgb(241, 216, 162);" class="fills"/><path d="M10.700,17.938C10.766,18.155,10.810,18.302,10.755,18.526C10.654,18.966,10.655,19.423,10.630,19.875C10.603,20.206,10.603,20.206,10.506,20.515C10.492,20.668,10.482,20.821,10.475,20.974C10.471,21.062,10.467,21.149,10.463,21.239C10.459,21.330,10.455,21.421,10.451,21.514C10.447,21.606,10.443,21.698,10.438,21.793C10.428,22.020,10.418,22.247,10.409,22.474C10.569,22.474,10.730,22.474,10.895,22.474C10.895,22.542,10.895,22.610,10.895,22.680C10.784,22.671,10.784,22.671,10.670,22.661C10.354,22.684,10.327,22.758,10.117,22.990C9.855,23.061,9.855,23.061,9.630,23.093C9.764,22.938,9.764,22.938,9.922,22.784C9.986,22.784,10.051,22.784,10.117,22.784C10.111,22.681,10.105,22.578,10.100,22.472C10.045,20.958,10.247,19.379,10.700,17.938ZZ" style="fill: rgb(232, 213, 165);" class="fills"/><path d="M26.459,11.856C27.599,12.284,28.341,13.485,28.867,14.584C28.988,14.948,28.988,14.948,28.988,15.670C29.502,15.738,30.016,15.806,30.545,15.876C30.545,15.910,30.545,15.944,30.545,15.979C29.967,15.945,29.389,15.911,28.794,15.876C28.790,15.708,28.786,15.540,28.782,15.367C28.723,14.655,28.435,14.146,27.955,13.652C27.821,13.505,27.821,13.505,27.712,13.222C27.430,12.705,26.963,12.329,26.459,12.062C26.459,11.994,26.459,11.926,26.459,11.856ZZ" style="fill: rgb(236, 225, 195);" class="fills"/><path d="M32.879,35.567C33.104,35.924,33.158,36.248,33.226,36.662C33.239,36.737,33.251,36.812,33.264,36.889C33.350,37.410,33.435,37.925,33.463,38.454C33.470,38.571,33.478,38.689,33.485,38.810C33.517,39.712,33.424,40.453,32.977,41.237C32.880,41.305,32.784,41.373,32.685,41.443C32.791,41.157,32.901,40.881,33.031,40.605C33.208,40.167,33.212,39.763,33.202,39.291C33.201,39.208,33.200,39.126,33.199,39.040C33.191,38.645,33.175,38.271,33.080,37.887C33.003,37.573,32.959,37.278,32.942,36.955C32.937,36.870,32.933,36.785,32.928,36.698C32.910,36.321,32.894,35.944,32.879,35.567ZZ" style="fill: rgb(197, 213, 228);" class="fills"/><path d="M7.490,5.052C7.770,5.194,7.938,5.341,8.171,5.567C8.171,5.635,8.171,5.703,8.171,5.773C7.930,5.722,7.930,5.722,7.685,5.670C7.685,5.602,7.685,5.534,7.685,5.464C7.531,5.444,7.377,5.425,7.223,5.406C7.137,5.395,7.051,5.384,6.963,5.373C6.723,5.361,6.550,5.388,6.323,5.464C6.323,5.532,6.323,5.600,6.323,5.670C6.243,5.728,6.164,5.786,6.082,5.846C5.806,6.062,5.806,6.062,5.789,6.416C5.795,6.536,5.800,6.655,5.806,6.778C5.813,6.959,5.813,6.959,5.819,7.144C5.825,7.236,5.831,7.328,5.837,7.423C5.550,6.967,5.477,6.628,5.545,6.082C5.956,5.210,6.597,4.874,7.490,5.052ZZ" style="fill: rgb(240, 218, 167);" class="fills"/><path d="M33.074,5.773C33.584,5.970,33.910,6.279,34.144,6.804C34.231,7.390,34.162,7.846,33.852,8.351C33.788,8.385,33.724,8.419,33.658,8.454C33.625,8.352,33.593,8.249,33.560,8.144C33.657,8.076,33.753,8.008,33.852,7.938C33.929,7.713,33.929,7.713,33.968,7.461C33.991,7.335,33.991,7.335,34.014,7.206C34.030,7.109,34.030,7.109,34.047,7.010C33.950,6.976,33.854,6.942,33.755,6.907C33.723,6.737,33.691,6.567,33.658,6.392C33.296,6.277,32.939,6.256,32.563,6.231C32.440,6.222,32.317,6.213,32.191,6.204C32.097,6.198,32.003,6.192,31.907,6.186C32.283,5.769,32.522,5.725,33.074,5.773ZZ" style="fill: rgb(234, 208, 148);" class="fills"/><path d="M47.179,32.474C47.211,32.474,47.243,32.474,47.179,32.474ZC47.549,34.189,47.359,35.528,46.693,37.113C46.661,37.113,46.628,37.113,46.595,37.113C46.595,36.841,46.595,36.569,46.595,36.289C46.692,36.289,46.788,36.289,46.887,36.289C46.881,36.136,46.881,36.136,46.875,35.979C46.874,35.686,46.906,35.495,46.981,35.203C47.115,34.659,47.126,34.116,47.143,33.557C47.146,33.452,47.150,33.348,47.154,33.240C47.163,32.985,47.171,32.730,47.179,32.474ZZ" style="fill: rgb(186, 204, 223);" class="fills"/><path d="M18.482,5.052C18.515,5.052,18.547,5.052,18.482,5.052ZC18.586,5.160,18.592,5.268,18.598,5.379C18.606,5.521,18.614,5.663,18.622,5.805C18.626,5.877,18.630,5.948,18.634,6.021C18.653,6.337,18.679,6.605,18.774,6.907C18.871,6.941,18.967,6.975,19.066,7.010C19.110,7.061,19.154,7.112,19.200,7.165C19.412,7.373,19.558,7.388,19.844,7.423C20.129,7.370,20.129,7.370,20.410,7.274C20.552,7.230,20.552,7.230,20.697,7.185C20.769,7.161,20.841,7.138,20.914,7.113C20.817,7.423,20.817,7.423,20.574,7.597C20.023,7.816,19.576,7.837,19.036,7.577C18.698,7.244,18.493,6.975,18.385,6.495C18.383,6.008,18.424,5.534,18.482,5.052ZZ" style="fill: rgb(241, 219, 169);" class="fills"/><path d="M39.300,21.959C39.615,22.384,39.822,22.838,40.041,23.325C40.081,23.409,40.121,23.494,40.161,23.581C40.403,24.116,40.527,24.563,40.564,25.155C40.644,25.158,40.724,25.162,40.807,25.166C41.511,25.210,42.137,25.314,42.802,25.567C42.802,25.601,42.802,25.635,42.802,25.670C42.203,25.680,42.203,25.680,42.023,25.670C41.975,25.619,41.975,25.619,41.926,25.567C41.736,25.529,41.546,25.495,41.355,25.464C41.044,25.413,40.765,25.363,40.467,25.258C40.367,24.983,40.367,24.983,40.278,24.633C40.129,24.076,39.943,23.603,39.689,23.093C39.689,23.025,39.689,22.957,39.689,22.887C39.625,22.887,39.560,22.887,39.494,22.887C39.348,22.539,39.300,22.350,39.300,21.959ZZ" style="fill: rgb(210, 223, 236);" class="fills"/><path d="M22.860,12.738C22.924,12.787,22.988,12.836,23.054,12.887C22.765,13.040,22.580,12.926,22.270,12.841C20.687,12.470,19.336,12.680,17.870,13.429C17.704,13.505,17.704,13.505,17.510,13.505C17.542,13.369,17.574,13.233,17.607,13.093C19.104,12.539,21.346,11.903,22.860,12.738ZZ" style="fill: rgb(246, 232, 196);" class="fills"/><path d="M14.105,16.701C14.137,16.769,14.169,16.837,14.202,16.907C14.121,17.138,14.034,17.359,13.941,17.584C13.464,18.786,13.234,20.057,13.035,21.340C13.003,21.340,12.971,21.340,12.938,21.340C12.935,21.121,12.933,20.902,12.932,20.683C12.931,20.561,12.929,20.439,12.928,20.313C12.938,20.000,12.938,20.000,13.035,19.794C13.062,19.473,13.078,19.152,13.095,18.830C13.114,18.695,13.114,18.695,13.132,18.557C13.196,18.523,13.261,18.489,13.327,18.454C13.449,18.180,13.564,17.908,13.673,17.629C13.997,16.815,13.997,16.815,14.105,16.701ZZ" style="fill: rgb(246, 226, 185);" class="fills"/><path d="M8.755,36.907C8.853,37.015,8.853,37.015,8.954,37.124C9.993,38.222,11.096,38.999,12.451,39.588C12.160,39.691,12.160,39.691,11.825,39.538C11.691,39.466,11.557,39.392,11.424,39.317C11.284,39.240,11.144,39.163,11.004,39.086C10.935,39.048,10.867,39.010,10.797,38.971C10.469,38.793,10.134,38.634,9.798,38.475C9.583,38.316,9.579,38.204,9.533,37.938C9.285,37.692,9.198,37.629,8.852,37.629C8.820,37.391,8.788,37.153,8.755,36.907ZZ" style="fill: rgb(205, 219, 236);" class="fills"/><path d="M8.171,5.773C8.549,6.054,8.890,6.316,9.187,6.695C9.462,7.043,9.760,7.287,10.101,7.559C10.357,7.770,10.576,7.997,10.798,8.247C10.766,8.315,10.733,8.384,10.700,8.454C10.657,8.404,10.613,8.354,10.569,8.303C10.243,7.943,9.994,7.671,9.533,7.526C9.298,7.427,9.173,7.371,9.041,7.137C9.015,7.068,8.989,6.998,8.962,6.927C8.770,6.480,8.534,6.276,8.171,5.979C8.171,5.911,8.171,5.843,8.171,5.773ZZ" style="fill: rgb(238, 216, 162);" class="fills"/><path d="M38.716,27.938C39.113,27.923,39.510,27.914,39.908,27.906C40.018,27.902,40.129,27.897,40.243,27.893C41.067,27.880,41.678,28.060,42.412,28.454C42.412,28.556,42.412,28.658,42.412,28.763C41.954,28.574,41.954,28.574,41.754,28.450C41.468,28.319,41.218,28.310,40.907,28.293C40.785,28.285,40.664,28.277,40.539,28.269C40.283,28.255,40.027,28.240,39.771,28.226C39.590,28.214,39.590,28.214,39.405,28.202C39.294,28.196,39.183,28.190,39.068,28.183C38.984,28.171,38.900,28.158,38.813,28.144C38.781,28.076,38.749,28.008,38.716,27.938ZZ" style="fill: rgb(179, 199, 218);" class="fills"/><path d="M25.486,19.072C25.615,19.140,25.743,19.208,25.875,19.278C25.599,19.401,25.322,19.523,25.045,19.645C24.822,19.743,24.600,19.843,24.378,19.943C24.274,19.989,24.170,20.036,24.064,20.084C23.968,20.127,23.873,20.170,23.774,20.215C23.541,20.309,23.541,20.309,23.346,20.309C23.346,20.207,23.346,20.105,23.346,20.000C23.539,20.000,23.732,20.000,23.930,20.000C23.962,19.898,23.994,19.796,24.027,19.691C24.211,19.544,24.211,19.544,24.441,19.407C24.515,19.361,24.590,19.315,24.667,19.267C24.949,19.157,25.105,19.191,25.389,19.278C25.421,19.210,25.453,19.142,25.486,19.072ZZ" style="fill: rgb(174, 197, 219);" class="fills"/><path d="M21.887,37.216C22.167,37.423,22.167,37.423,22.374,37.629C22.341,37.731,22.309,37.833,22.276,37.938C22.206,37.887,22.136,37.836,22.063,37.784C21.762,37.613,21.637,37.568,21.304,37.629C20.922,37.835,20.755,37.954,20.586,38.376C20.566,38.470,20.546,38.563,20.525,38.660C20.461,38.660,20.397,38.660,20.331,38.660C20.600,37.646,20.600,37.646,21.012,37.320C21.336,37.205,21.547,37.180,21.887,37.216ZZ" style="fill: rgb(182, 202, 221);" class="fills"/><path d="M15.370,11.340C15.434,11.374,15.498,11.408,15.564,11.443C15.437,11.649,15.437,11.649,15.272,11.856C15.176,11.856,15.080,11.856,14.981,11.856C14.956,11.922,14.932,11.988,14.908,12.055C14.786,12.268,14.786,12.268,14.579,12.345C14.489,12.358,14.489,12.358,14.397,12.371C14.397,12.439,14.397,12.507,14.397,12.577C14.329,12.619,14.262,12.662,14.192,12.705C13.840,12.932,13.582,13.213,13.296,13.524C13.243,13.582,13.189,13.640,13.134,13.699C13.004,13.840,12.873,13.982,12.743,14.124C12.743,13.720,12.905,13.603,13.163,13.326C13.253,13.233,13.253,13.233,13.345,13.138C13.406,13.074,13.467,13.010,13.529,12.945C14.103,12.353,14.720,11.836,15.370,11.340ZZ" style="fill: rgb(242, 222, 176);" class="fills"/><path d="M7.588,32.371C7.620,32.371,7.652,32.371,7.588,32.371ZC7.689,32.431,7.694,32.490,7.698,32.552C7.794,33.823,7.907,34.996,8.366,36.186C8.069,36.081,7.974,36.024,7.782,35.773C7.413,34.741,7.570,33.455,7.588,32.371ZZ" style="fill: rgb(205, 219, 234);" class="fills"/><path d="M24.222,47.938C23.513,48.733,22.915,49.005,21.887,49.072C21.692,49.044,21.497,49.012,21.304,48.969C21.304,48.935,21.304,48.901,21.304,48.866C21.450,48.866,21.450,48.866,21.599,48.865C22.442,48.871,22.442,48.871,23.164,48.466C23.258,48.360,23.352,48.253,23.444,48.144C23.881,47.818,23.881,47.818,24.222,47.938ZZ" style="fill: rgb(191, 208, 228);" class="fills"/><path d="M18.774,42.371C18.886,42.726,18.849,42.838,18.774,43.196C18.752,43.394,18.730,43.592,18.708,43.790C18.675,44.039,18.628,44.283,18.580,44.530C18.485,45.012,18.430,45.489,18.385,45.979C18.353,45.979,18.321,45.979,18.288,45.979C18.237,44.764,18.248,43.487,18.774,42.371ZZ" style="fill: rgb(192, 211, 228);" class="fills"/><path d="M14.786,24.948C15.572,24.890,16.212,24.995,16.926,25.361C16.990,25.429,17.054,25.497,17.121,25.567C17.084,25.786,17.084,25.786,17.023,25.979C16.963,25.937,16.903,25.894,16.841,25.851C16.192,25.465,15.510,25.222,14.786,25.052C14.786,25.018,14.786,24.984,14.786,24.948ZZ" style="fill: rgb(189, 205, 223);" class="fills"/><path d="M14.786,24.845C14.786,24.879,14.786,24.913,14.786,24.948C14.680,24.941,14.574,24.934,14.465,24.927C13.421,24.879,12.606,25.044,11.634,25.442C11.284,25.567,11.284,25.567,10.992,25.464C11.103,25.417,11.213,25.370,11.327,25.322C11.678,25.199,11.678,25.199,11.770,24.948C11.997,24.909,12.224,24.876,12.451,24.845C12.579,24.810,12.707,24.774,12.834,24.736C13.526,24.548,14.107,24.640,14.786,24.845ZZ" style="fill: rgb(205, 219, 235);" class="fills"/><path d="M15.078,22.062C15.656,22.121,16.196,22.249,16.757,22.410C17.041,22.489,17.041,22.489,17.412,22.474C17.477,22.406,17.541,22.338,17.607,22.268C17.575,22.438,17.543,22.608,17.510,22.784C17.004,22.805,16.615,22.805,16.148,22.577C16.044,22.560,15.939,22.543,15.832,22.526C15.743,22.509,15.655,22.492,15.564,22.474C15.532,22.406,15.500,22.338,15.467,22.268C15.271,22.151,15.271,22.151,15.078,22.062ZZ" style="fill: rgb(186, 204, 222);" class="fills"/><path d="M31.907,10.206C31.820,10.281,31.734,10.355,31.645,10.432C31.441,10.610,31.267,10.785,31.086,10.992C30.748,11.324,30.419,11.543,29.946,11.549C29.616,11.514,29.422,11.491,29.183,11.237C29.244,11.240,29.305,11.242,29.368,11.244C29.929,11.257,30.396,11.200,30.934,11.031C30.966,10.861,30.998,10.691,31.031,10.515C31.095,10.515,31.160,10.515,31.226,10.515C31.226,10.413,31.226,10.311,31.226,10.206C31.688,10.090,31.688,10.090,31.907,10.206ZZ" style="fill: rgb(240, 222, 182);" class="fills"/><path d="M32.198,41.856C32.263,41.890,32.327,41.924,32.393,41.959C31.716,42.622,31.145,42.809,30.229,42.816C30.161,42.816,30.093,42.817,30.023,42.817C29.654,42.812,29.406,42.765,29.086,42.577C29.147,42.576,29.208,42.574,29.271,42.573C29.552,42.565,29.832,42.555,30.113,42.545C30.209,42.543,30.306,42.540,30.405,42.538C30.976,42.516,31.399,42.446,31.907,42.165C31.907,42.097,31.907,42.029,31.907,41.959C32.003,41.925,32.099,41.891,32.198,41.856ZZ" style="fill: rgb(200, 216, 232);" class="fills"/><path d="M29.767,18.763C29.846,18.778,29.926,18.793,30.009,18.809C30.253,18.850,30.492,18.884,30.737,18.910C30.804,18.918,30.871,18.925,30.941,18.933C31.079,18.949,31.218,18.963,31.356,18.977C31.741,19.022,31.952,19.060,32.198,19.381C32.396,19.505,32.396,19.505,32.606,19.607C32.675,19.642,32.745,19.678,32.817,19.714C32.869,19.741,32.922,19.767,32.977,19.794C32.912,19.828,32.848,19.862,32.782,19.897C32.595,19.829,32.411,19.752,32.229,19.671C31.615,19.410,31.004,19.228,30.362,19.061C30.058,18.969,30.058,18.969,29.767,18.763ZZ" style="fill: rgb(192, 209, 227);" class="fills"/><path d="M19.455,24.948C19.519,24.948,19.584,24.948,19.650,24.948C19.583,25.548,19.323,25.933,18.902,26.327C18.499,26.537,18.147,26.576,17.704,26.495C17.640,26.427,17.576,26.359,17.510,26.289C17.607,26.294,17.607,26.294,17.705,26.300C18.392,26.335,18.392,26.335,18.969,25.979C18.969,25.843,18.969,25.707,18.969,25.567C19.033,25.567,19.097,25.567,19.163,25.567C19.175,25.503,19.188,25.439,19.200,25.374C19.261,25.155,19.261,25.155,19.455,24.948ZZ" style="fill: rgb(190, 206, 224);" class="fills"/><path d="M6.809,19.794C6.906,19.828,7.002,19.862,7.101,19.897C7.266,20.420,7.258,20.864,7.077,21.372C6.911,21.642,6.774,21.790,6.518,21.959C6.453,21.925,6.389,21.891,6.323,21.856C6.385,21.815,6.447,21.775,6.511,21.733C6.765,21.498,6.765,21.380,6.809,21.031C6.816,20.814,6.818,20.597,6.815,20.380C6.815,20.270,6.814,20.160,6.813,20.046C6.812,19.963,6.811,19.880,6.809,19.794ZZ" style="fill: rgb(235, 210, 156);" class="fills"/><path d="M29.767,18.660C29.767,18.694,29.767,18.728,29.767,18.763C29.690,18.768,29.614,18.773,29.535,18.779C29.183,18.803,28.830,18.828,28.478,18.853C28.357,18.861,28.237,18.869,28.114,18.878C27.358,18.932,26.620,19.026,25.875,19.175C25.843,19.073,25.811,18.971,25.778,18.866C26.019,18.917,26.019,18.917,26.265,18.969C26.265,18.901,26.265,18.833,26.265,18.763C27.433,18.656,28.594,18.648,29.767,18.660ZZ" style="fill: rgb(200, 214, 231);" class="fills"/><path d="M38.582,40.097C38.698,40.098,38.813,40.099,38.933,40.099C39.022,40.101,39.111,40.102,39.202,40.103C39.202,40.205,39.202,40.307,39.202,40.412C39.132,40.417,39.061,40.422,38.989,40.428C38.481,40.469,38.025,40.517,37.549,40.722C37.769,40.070,37.946,40.090,38.582,40.097ZZ" style="fill: rgb(179, 201, 222);" class="fills"/><path d="M37.743,25.567C37.934,25.687,37.934,25.687,38.132,25.876C38.188,26.140,38.188,26.140,38.199,26.437C38.212,26.940,38.212,26.940,38.327,27.423C38.423,27.457,38.519,27.491,38.619,27.526C38.686,27.738,38.686,27.738,38.716,27.938C38.383,27.792,38.225,27.644,38.035,27.320C37.943,26.974,37.943,26.974,37.871,26.591C37.846,26.465,37.822,26.338,37.797,26.208C37.743,25.876,37.743,25.876,37.743,25.567ZZ" style="fill: rgb(190, 206, 226);" class="fills"/><path d="M5.837,7.423C5.901,7.423,5.965,7.423,6.031,7.423C6.031,7.491,6.031,7.559,6.031,7.629C6.117,7.629,6.204,7.629,6.293,7.629C6.711,7.763,6.765,7.938,6.968,8.329C7.185,8.700,7.481,8.984,7.782,9.278C7.490,9.278,7.490,9.278,7.298,9.101C7.227,9.021,7.156,8.942,7.083,8.860C6.731,8.472,6.368,8.117,5.976,7.774C5.930,7.726,5.884,7.678,5.837,7.629C5.837,7.561,5.837,7.493,5.837,7.423ZZ" style="fill: rgb(244, 224, 174);" class="fills"/><path d="M33.463,8.454C33.527,8.488,33.591,8.522,33.658,8.557C32.594,9.710,32.594,9.710,32.101,10.103C32.037,10.103,31.973,10.103,31.907,10.103C31.907,9.933,31.907,9.763,31.907,9.588C32.003,9.554,32.099,9.520,32.198,9.485C32.198,9.416,32.198,9.348,32.198,9.278C32.299,9.257,32.399,9.236,32.502,9.214C32.944,9.084,33.163,8.811,33.463,8.454ZZ" style="fill: rgb(243, 219, 164);" class="fills"/><path d="M2.724,19.278C3.212,19.268,3.700,19.261,4.188,19.256C4.354,19.254,4.520,19.251,4.685,19.247C4.925,19.242,5.164,19.240,5.403,19.238C5.476,19.236,5.550,19.234,5.626,19.232C6.142,19.231,6.405,19.349,6.809,19.691C6.745,19.759,6.681,19.827,6.615,19.897C6.615,19.829,6.615,19.761,6.615,19.691C6.422,19.657,6.230,19.623,6.031,19.588C6.031,19.520,6.031,19.452,6.031,19.381C4.940,19.381,3.848,19.381,2.724,19.381C2.724,19.347,2.724,19.313,2.724,19.278ZZ" style="fill: rgb(229, 192, 112);" class="fills"/><path d="M31.712,31.443C31.982,31.779,32.097,32.099,32.217,32.519C32.250,32.634,32.284,32.749,32.318,32.867C32.386,33.165,32.409,33.407,32.393,33.711C32.028,33.342,31.884,33.075,31.852,32.539C31.828,32.165,31.788,31.810,31.712,31.443ZZ" style="fill: rgb(189, 208, 226);" class="fills"/><path d="M10.798,8.454C10.862,8.488,10.926,8.522,10.992,8.557C11.124,8.975,11.156,9.357,11.089,9.794C10.877,10.078,10.713,10.251,10.409,10.412C10.409,10.242,10.409,10.072,10.409,9.897C10.537,9.863,10.665,9.829,10.798,9.794C10.798,9.352,10.798,8.909,10.798,8.454ZZ" style="fill: rgb(233, 209, 149);" class="fills"/><path d="M30.156,7.732C30.220,7.766,30.284,7.800,30.350,7.835C30.281,7.899,30.281,7.899,30.210,7.964C30.044,8.131,30.044,8.131,30.016,8.351C29.938,8.643,29.816,8.712,29.572,8.866C29.379,8.940,29.185,9.009,28.988,9.072C28.892,9.123,28.892,9.123,28.794,9.175C28.945,8.740,29.253,8.502,29.584,8.222C29.639,8.174,29.694,8.127,29.750,8.078C29.885,7.962,30.020,7.847,30.156,7.732ZZ" style="fill: rgb(238, 213, 155);" class="fills"/><path d="M44.455,32.784C44.628,33.099,44.673,33.324,44.669,33.687C44.668,33.779,44.668,33.871,44.667,33.965C44.665,34.060,44.664,34.155,44.662,34.253C44.661,34.349,44.660,34.446,44.659,34.545C44.657,34.783,44.654,35.020,44.650,35.258C44.586,35.258,44.521,35.258,44.455,35.258C44.423,35.496,44.391,35.734,44.358,35.979C44.262,35.979,44.165,35.979,44.066,35.979C44.086,35.917,44.106,35.855,44.127,35.791C44.153,35.709,44.179,35.626,44.206,35.541C44.232,35.460,44.258,35.379,44.285,35.295C44.398,34.917,44.467,34.591,44.465,34.193C44.464,34.111,44.464,34.028,44.464,33.943C44.463,33.858,44.462,33.773,44.461,33.686C44.461,33.556,44.461,33.556,44.460,33.423C44.459,33.210,44.457,32.997,44.455,32.784ZZ" style="fill: rgb(202, 218, 233);" class="fills"/><path d="M20.732,12.358C20.885,12.360,20.885,12.360,21.042,12.361C21.291,12.363,21.541,12.367,21.790,12.371C21.790,12.405,21.790,12.439,21.790,12.474C21.732,12.475,21.673,12.476,21.613,12.477C20.084,12.506,20.084,12.506,18.615,12.913C18.385,12.990,18.385,12.990,18.093,12.887C18.853,12.296,19.832,12.342,20.732,12.358ZZ" style="fill: rgb(227, 196, 115);" class="fills"/><path d="M9.339,26.701C9.467,26.735,9.595,26.769,9.728,26.804C9.659,26.876,9.591,26.949,9.521,27.023C9.101,27.548,8.895,28.234,8.658,28.866C8.528,28.455,8.635,28.309,8.797,27.919C8.843,27.807,8.889,27.695,8.937,27.579C8.973,27.494,9.009,27.408,9.047,27.320C8.982,27.286,8.918,27.252,8.852,27.216C8.981,27.182,9.109,27.148,9.241,27.113C9.273,26.977,9.305,26.841,9.339,26.701ZZ" style="fill: rgb(190, 209, 228);" class="fills"/><path d="M19.650,12.680C19.403,12.779,19.155,12.878,18.908,12.977C18.839,13.005,18.769,13.032,18.698,13.061C18.304,13.218,17.910,13.367,17.510,13.505C17.536,13.309,17.536,13.309,17.607,13.093C17.881,12.973,18.131,12.883,18.416,12.803C18.491,12.779,18.566,12.756,18.643,12.731C19.023,12.618,19.266,12.551,19.650,12.680ZZ" style="fill: rgb(240, 223, 180);" class="fills"/><path d="M46.595,30.309C46.856,30.586,46.896,30.842,46.997,31.218C47.031,31.344,47.065,31.470,47.101,31.600C47.168,31.909,47.196,32.159,47.179,32.474C46.984,32.371,46.984,32.371,46.887,32.062C46.854,31.925,46.821,31.787,46.790,31.649C46.772,31.570,46.753,31.491,46.734,31.410C46.649,31.026,46.595,30.708,46.595,30.309ZZ" style="fill: rgb(200, 217, 234);" class="fills"/><path d="M23.735,12.784C23.735,12.886,23.735,12.988,23.735,13.093C23.896,13.127,24.056,13.161,24.222,13.196C24.254,13.366,24.286,13.536,24.319,13.711C24.269,13.684,24.218,13.657,24.166,13.628C23.801,13.432,23.438,13.245,23.054,13.093C23.054,13.025,23.054,12.957,23.054,12.887C23.517,12.784,23.517,12.784,23.735,12.784ZZ" style="fill: rgb(235, 208, 150);" class="fills"/><path d="M36.479,22.784C37.266,23.437,37.266,23.437,37.409,24.014C37.476,24.280,37.534,24.508,37.661,24.749C37.764,24.998,37.717,25.106,37.646,25.361C37.621,25.300,37.596,25.239,37.570,25.176C37.456,24.900,37.341,24.625,37.226,24.349C37.167,24.206,37.167,24.206,37.107,24.059C37.069,23.967,37.030,23.875,36.990,23.780C36.938,23.653,36.938,23.653,36.884,23.523C36.771,23.300,36.647,23.165,36.479,22.990C36.479,22.922,36.479,22.854,36.479,22.784ZZ" style="fill: rgb(209, 223, 238);" class="fills"/><path d="M37.938,20.206C38.340,20.555,38.698,20.893,39.008,21.340C38.976,21.408,38.944,21.476,38.911,21.546C38.476,21.285,38.215,21.059,37.938,20.619C37.938,20.482,37.938,20.346,37.938,20.206ZZ" style="fill: rgb(180, 201, 220);" class="fills"/><path d="M37.451,40.412C37.516,40.446,37.580,40.480,37.646,40.515C37.550,40.720,37.453,40.924,37.354,41.134C37.290,41.134,37.226,41.134,37.160,41.134C37.007,41.638,37.007,42.177,37.160,42.680C36.975,42.516,36.878,42.420,36.826,42.167C36.825,41.564,36.943,41.124,37.257,40.619C37.321,40.551,37.385,40.482,37.451,40.412ZZ" style="fill: rgb(203, 218, 234);" class="fills"/><path d="M16.245,14.536C16.171,14.606,16.097,14.675,16.021,14.747C15.924,14.840,15.826,14.933,15.728,15.026C15.680,15.071,15.631,15.117,15.581,15.164C15.369,15.367,15.178,15.563,15.007,15.807C14.966,15.864,14.925,15.921,14.883,15.979C14.819,15.979,14.755,15.979,14.689,15.979C14.827,15.598,15.056,15.377,15.337,15.110C15.488,14.922,15.525,14.777,15.564,14.536C16.026,14.420,16.026,14.420,16.245,14.536ZZ" style="fill: rgb(242, 219, 169);" class="fills"/><path d="M5.642,28.557C5.763,28.941,5.701,29.132,5.612,29.523C5.586,29.639,5.560,29.754,5.534,29.874C5.457,30.168,5.366,30.441,5.253,30.722C5.062,30.106,5.239,29.364,5.508,28.795C5.552,28.716,5.597,28.638,5.642,28.557ZZ" style="fill: rgb(177, 197, 219);" class="fills"/><path d="M45.914,28.763C46.231,29.149,46.444,29.620,46.595,30.103C46.563,30.171,46.531,30.239,46.498,30.309C46.434,30.207,46.370,30.105,46.304,30.000C46.207,29.966,46.111,29.932,46.012,29.897C45.868,29.537,45.907,29.147,45.914,28.763ZZ" style="fill: rgb(176, 199, 219);" class="fills"/><path d="M44.358,26.701C44.837,27.101,45.189,27.501,45.525,28.041C45.192,28.012,45.066,27.968,44.832,27.706C44.358,26.969,44.358,26.969,44.358,26.701ZZ" style="fill: rgb(187, 205, 222);" class="fills"/><path d="M33.949,20.619C34.383,20.721,34.383,20.721,34.825,20.825C34.825,20.961,34.825,21.097,34.825,21.237C34.953,21.271,35.082,21.305,35.214,21.340C35.214,21.408,35.214,21.476,35.214,21.546C34.725,21.384,34.336,21.070,33.949,20.722C33.949,20.688,33.949,20.654,33.949,20.619ZZ" style="fill: rgb(173, 193, 214);" class="fills"/><path d="M11.381,15.979C11.547,16.496,11.372,16.934,11.187,17.423C10.974,17.745,10.974,17.745,10.798,17.938C10.857,17.463,10.977,17.055,11.144,16.611C11.211,16.433,11.211,16.433,11.278,16.251C11.312,16.161,11.346,16.072,11.381,15.979ZZ" style="fill: rgb(240, 218, 168);" class="fills"/><path d="M30.545,15.979C30.728,16.024,30.728,16.024,30.916,16.070C31.438,16.193,31.963,16.294,32.490,16.392C32.490,16.426,32.490,16.460,32.490,16.495C32.073,16.495,31.656,16.495,31.226,16.495C31.226,16.427,31.226,16.359,31.226,16.289C31.001,16.289,30.776,16.289,30.545,16.289C30.545,16.187,30.545,16.085,30.545,15.979ZZ" style="fill: rgb(198, 214, 229);" class="fills"/><path d="M27.724,41.753C28.157,41.855,28.157,41.855,28.599,41.959C28.599,42.061,28.599,42.163,28.599,42.268C28.840,42.370,28.840,42.370,29.086,42.474C28.794,42.577,28.794,42.577,28.556,42.459C28.470,42.403,28.384,42.346,28.295,42.287C28.209,42.231,28.122,42.175,28.033,42.118C27.821,41.959,27.821,41.959,27.724,41.753ZZ" style="fill: rgb(183, 201, 222);" class="fills"/><path d="M18.482,10.000C17.268,10.691,17.268,10.691,16.634,10.722C16.954,10.438,17.280,10.287,17.668,10.129C17.779,10.083,17.891,10.036,18.006,9.989C18.288,9.897,18.288,9.897,18.482,10.000ZZ" style="fill: rgb(242, 225, 181);" class="fills"/><path d="M6.712,25.979C6.810,26.252,6.819,26.365,6.719,26.643C6.653,26.774,6.653,26.774,6.584,26.907C6.519,27.038,6.519,27.038,6.452,27.171C6.409,27.254,6.367,27.337,6.323,27.423C6.258,27.560,6.193,27.697,6.128,27.835C5.996,27.415,6.147,27.173,6.311,26.791C6.352,26.691,6.352,26.691,6.394,26.589C6.598,26.100,6.598,26.100,6.712,25.979ZZ" style="fill: rgb(201, 219, 234);" class="fills"/><path d="M7.198,39.485C7.574,39.602,7.886,39.708,8.171,40.000C8.244,40.226,8.244,40.226,8.268,40.412C7.980,40.272,7.754,40.111,7.515,39.890C7.455,39.836,7.395,39.782,7.334,39.726C7.289,39.680,7.244,39.635,7.198,39.588C7.198,39.554,7.198,39.520,7.198,39.485ZZ" style="fill: rgb(183, 202, 221);" class="fills"/><path d="M26.070,15.464C26.289,15.675,26.362,15.774,26.459,16.082C26.198,16.359,26.032,16.329,25.669,16.353C25.562,16.361,25.456,16.369,25.346,16.376C25.264,16.381,25.182,16.387,25.097,16.392C25.379,16.192,25.476,16.155,25.796,16.121C25.919,16.108,26.041,16.096,26.167,16.082C26.135,15.878,26.103,15.674,26.070,15.464ZZ" style="fill: rgb(216, 223, 219);" class="fills"/><path d="M40.564,28.144C41.257,28.108,41.777,28.149,42.412,28.454C42.412,28.556,42.412,28.658,42.412,28.763C41.958,28.575,41.958,28.575,41.747,28.450C41.501,28.333,41.294,28.309,41.026,28.286C40.939,28.278,40.853,28.271,40.763,28.263C40.665,28.255,40.665,28.255,40.564,28.247C40.564,28.213,40.564,28.179,40.564,28.144ZZ" style="fill: rgb(202, 217, 232);" class="fills"/><path d="M8.171,24.227C8.203,24.295,8.235,24.363,8.268,24.433C7.960,24.881,7.661,25.116,7.198,25.361C7.339,25.006,7.517,24.808,7.794,24.562C7.865,24.499,7.935,24.435,8.008,24.370C8.089,24.299,8.089,24.299,8.171,24.227ZZ" style="fill: rgb(186, 204, 224);" class="fills"/><path d="M23.346,40.000C23.601,40.270,23.685,40.575,23.802,40.928C23.825,40.994,23.849,41.060,23.872,41.128C23.930,41.300,23.979,41.475,24.027,41.649C23.995,41.718,23.963,41.786,23.930,41.856C23.679,41.541,23.570,41.267,23.474,40.870C23.450,40.772,23.425,40.674,23.400,40.573C23.346,40.309,23.346,40.309,23.346,40.000ZZ" style="fill: rgb(212, 224, 237);" class="fills"/><path d="M19.942,39.588C19.974,39.588,20.006,39.588,19.942,39.588ZC20.098,40.209,20.098,40.209,19.931,40.495C19.811,40.645,19.682,40.787,19.553,40.928C19.455,40.619,19.455,40.619,19.552,40.363C19.598,40.271,19.645,40.179,19.692,40.084C19.738,39.991,19.784,39.898,19.832,39.802C19.868,39.731,19.904,39.661,19.942,39.588ZZ" style="fill: rgb(199, 215, 232);" class="fills"/><path d="M7.685,30.309C7.781,30.309,7.877,30.309,7.977,30.309C7.964,30.382,7.951,30.454,7.938,30.528C7.836,31.107,7.747,31.683,7.685,32.268C7.653,32.268,7.621,32.268,7.588,32.268C7.577,31.607,7.612,30.966,7.685,30.309ZZ" style="fill: rgb(205, 221, 236);" class="fills"/><path d="M9.144,23.402C9.092,23.791,8.950,23.988,8.658,24.227C8.450,24.186,8.450,24.186,8.268,24.124C8.377,24.003,8.487,23.883,8.597,23.763C8.688,23.662,8.688,23.662,8.781,23.560C8.949,23.402,8.949,23.402,9.144,23.402ZZ" style="fill: rgb(171, 191, 216);" class="fills"/><path d="M7.782,34.948C8.100,35.117,8.144,35.434,8.268,35.773C8.305,35.910,8.340,36.047,8.366,36.186C7.952,36.040,7.952,36.040,7.782,35.773C7.757,35.493,7.769,35.231,7.782,34.948ZZ" style="fill: rgb(184, 203, 219);" class="fills"/><path d="M6.712,5.155C7.701,5.241,7.701,5.241,8.074,5.464C8.106,5.566,8.138,5.668,8.171,5.773C8.011,5.739,7.850,5.705,7.685,5.670C7.685,5.602,7.685,5.534,7.685,5.464C7.364,5.396,7.043,5.328,6.712,5.258C6.712,5.224,6.712,5.190,6.712,5.155ZZ" style="fill: rgb(232, 205, 134);" class="fills"/><path d="M8.755,36.907C8.823,36.982,8.891,37.056,8.962,37.133C9.234,37.422,9.526,37.680,9.825,37.938C9.477,37.938,9.413,37.843,9.144,37.629C9.048,37.629,8.951,37.629,8.852,37.629C8.820,37.391,8.788,37.153,8.755,36.907ZZ" style="fill: rgb(205, 222, 236);" class="fills"/><path d="M10.992,25.670C10.851,25.788,10.709,25.907,10.567,26.024C10.488,26.090,10.409,26.156,10.327,26.224C10.117,26.392,10.117,26.392,9.922,26.495C9.922,26.263,9.922,26.263,10.019,25.979C10.664,25.496,10.664,25.496,10.992,25.670ZZ" style="fill: rgb(179, 205, 223);" class="fills"/><path d="M35.214,18.041C35.648,18.299,36.072,18.561,36.479,18.866C36.479,18.900,36.479,18.934,36.479,18.969C36.286,18.969,36.093,18.969,35.895,18.969C35.863,18.867,35.831,18.765,35.798,18.660C35.604,18.521,35.409,18.384,35.214,18.247C35.214,18.179,35.214,18.111,35.214,18.041ZZ" style="fill: rgb(190, 205, 221);" class="fills"/><path d="M13.424,18.454C13.438,19.219,13.438,19.219,13.327,19.588C13.263,19.588,13.198,19.588,13.132,19.588C13.132,19.247,13.132,18.907,13.132,18.557C13.327,18.454,13.327,18.454,13.424,18.454ZZ" style="fill: rgb(232, 204, 146);" class="fills"/><path d="M28.405,13.918C28.729,14.230,28.881,14.480,28.910,14.950C28.908,15.060,28.906,15.170,28.903,15.284C28.901,15.395,28.900,15.506,28.898,15.620C28.896,15.705,28.893,15.789,28.891,15.876C28.859,15.876,28.827,15.876,28.794,15.876C28.790,15.799,28.787,15.722,28.783,15.643C28.776,15.541,28.770,15.440,28.763,15.335C28.758,15.235,28.752,15.134,28.746,15.031C28.691,14.711,28.588,14.582,28.405,14.330C28.405,14.194,28.405,14.058,28.405,13.918ZZ" style="fill: rgb(241, 223, 185);" class="fills"/><path d="M33.949,6.598C34.181,6.844,34.173,6.907,34.174,7.242C34.166,7.679,34.080,7.979,33.852,8.351C33.788,8.385,33.724,8.419,33.658,8.454C33.625,8.352,33.593,8.249,33.560,8.144C33.657,8.076,33.753,8.008,33.852,7.938C33.909,7.726,33.909,7.726,33.919,7.487C33.925,7.408,33.932,7.328,33.938,7.246C33.948,7.030,33.949,6.814,33.949,6.598ZZ" style="fill: rgb(244, 223, 182);" class="fills"/><path d="M31.128,30.515C31.161,30.584,31.193,30.652,31.226,30.722C31.138,30.716,31.138,30.716,31.048,30.711C30.572,30.694,30.333,30.695,29.961,31.031C29.742,30.999,29.742,30.999,29.572,30.928C30.111,30.539,30.481,30.459,31.128,30.515ZZ" style="fill: rgb(202, 217, 233);" class="fills"/><path d="M41.148,25.361C42.269,25.323,42.269,25.323,42.802,25.567C42.802,25.601,42.802,25.635,42.802,25.670C42.203,25.680,42.203,25.680,42.023,25.670C41.991,25.636,41.959,25.602,41.926,25.567C41.795,25.543,41.663,25.525,41.531,25.509C41.404,25.494,41.278,25.479,41.148,25.464C41.148,25.430,41.148,25.396,41.148,25.361ZZ" style="fill: rgb(183, 202, 219);" class="fills"/><path d="M6.615,21.443C6.679,21.477,6.743,21.511,6.809,21.546C6.581,21.805,6.411,21.949,6.074,21.986C5.832,21.985,5.592,21.977,5.350,21.959C5.350,21.925,5.350,21.891,5.350,21.856C5.433,21.835,5.516,21.813,5.602,21.792C5.710,21.764,5.817,21.736,5.928,21.707C6.089,21.666,6.089,21.666,6.253,21.624C6.507,21.574,6.507,21.574,6.615,21.443ZZ" style="fill: rgb(229, 192, 113);" class="fills"/><path d="M23.930,17.010C23.735,17.320,23.735,17.320,23.456,17.397C23.180,17.420,23.022,17.398,22.763,17.320C22.920,17.248,23.078,17.177,23.237,17.107C23.325,17.067,23.413,17.028,23.504,16.987C23.735,16.907,23.735,16.907,23.930,17.010ZZ" style="fill: rgb(189, 210, 228);" class="fills"/><path d="M16.829,13.505C17.054,13.505,17.278,13.505,17.510,13.505C17.112,13.861,16.689,14.148,16.245,14.433C16.342,14.124,16.342,14.124,16.592,13.969C16.670,13.918,16.748,13.867,16.829,13.814C16.829,13.712,16.829,13.610,16.829,13.505ZZ" style="fill: rgb(246, 226, 179);" class="fills"/><path d="M19.650,9.794C19.650,9.862,19.650,9.930,19.650,10.000C19.557,10.009,19.557,10.009,19.462,10.019C19.341,10.032,19.341,10.032,19.218,10.045C19.098,10.058,19.098,10.058,18.975,10.070C18.776,10.081,18.776,10.081,18.677,10.206C18.483,10.210,18.288,10.211,18.093,10.206C18.533,9.760,19.073,9.794,19.650,9.794ZZ" style="fill: rgb(232, 194, 114);" class="fills"/><path d="M20.331,48.454C20.588,48.454,20.844,48.454,21.109,48.454C21.109,48.556,21.109,48.658,21.109,48.763C21.269,48.763,21.430,48.763,21.595,48.763C21.595,48.797,21.595,48.831,21.595,48.866C21.084,48.899,20.774,48.832,20.331,48.557C20.331,48.523,20.331,48.489,20.331,48.454ZZ" style="fill: rgb(179, 197, 214);" class="fills"/><path d="M46.984,35.876C47.103,36.252,47.049,36.323,46.893,36.669C46.856,36.752,46.819,36.835,46.781,36.921C46.752,36.985,46.723,37.048,46.693,37.113C46.661,37.113,46.628,37.113,46.595,37.113C46.595,36.841,46.595,36.569,46.595,36.289C46.692,36.289,46.788,36.289,46.887,36.289C46.919,36.153,46.951,36.016,46.984,35.876ZZ" style="fill: rgb(190, 206, 224);" class="fills"/><path d="M37.062,42.268C37.474,42.413,37.557,42.697,37.743,43.093C37.583,43.059,37.422,43.025,37.257,42.990C37.193,42.752,37.128,42.513,37.062,42.268ZZ" style="fill: rgb(175, 196, 216);" class="fills"/><path d="M11.576,42.474C12.388,42.510,12.388,42.510,12.652,42.790C12.682,42.856,12.712,42.922,12.743,42.990C12.316,42.921,11.967,42.764,11.576,42.577C11.576,42.543,11.576,42.509,11.576,42.474ZZ" style="fill: rgb(199, 215, 232);" class="fills"/><path d="M31.907,10.206C31.650,10.410,31.393,10.614,31.128,10.825C31.096,10.723,31.064,10.621,31.031,10.515C31.095,10.515,31.160,10.515,31.226,10.515C31.226,10.413,31.226,10.311,31.226,10.206C31.688,10.090,31.688,10.090,31.907,10.206ZZ" style="fill: rgb(239, 211, 145);" class="fills"/><path d="M42.996,37.526C43.028,37.628,43.060,37.730,43.093,37.835C43.049,37.878,43.005,37.920,42.960,37.964C42.796,38.151,42.705,38.325,42.607,38.557C42.479,38.523,42.350,38.489,42.218,38.454C42.266,38.404,42.314,38.354,42.363,38.303C42.426,38.238,42.488,38.173,42.552,38.106C42.614,38.041,42.676,37.976,42.740,37.910C42.907,37.740,42.907,37.740,42.996,37.526ZZ" style="fill: rgb(150, 176, 203);" class="fills"/><path d="M24.903,16.392C24.967,16.426,25.031,16.460,25.097,16.495C24.903,16.804,24.903,16.804,24.671,16.857C24.583,16.863,24.495,16.869,24.404,16.875C24.316,16.882,24.227,16.889,24.136,16.896C24.034,16.901,24.034,16.901,23.930,16.907C24.245,16.685,24.550,16.535,24.903,16.392ZZ" style="fill: rgb(189, 207, 224);" class="fills"/><path d="M41.829,38.557C41.893,38.591,41.957,38.625,42.023,38.660C41.927,38.813,41.927,38.813,41.829,38.969C41.861,39.037,41.893,39.105,41.926,39.175C41.830,39.209,41.733,39.243,41.634,39.278C41.634,39.210,41.634,39.142,41.634,39.072C41.474,39.140,41.313,39.208,41.148,39.278C41.375,39.038,41.602,38.797,41.829,38.557ZZ" style="fill: rgb(196, 215, 234);" class="fills"/><path d="M27.335,35.979C27.450,36.333,27.413,36.534,27.292,36.881C27.250,37.005,27.250,37.005,27.207,37.131C27.185,37.193,27.163,37.256,27.140,37.320C27.076,37.320,27.012,37.320,26.946,37.320C27.049,36.856,27.154,36.418,27.335,35.979ZZ" style="fill: rgb(153, 177, 202);" class="fills"/><path d="M7.588,24.948C7.652,24.982,7.716,25.016,7.782,25.052C7.563,25.292,7.366,25.483,7.101,25.670C7.069,25.772,7.037,25.874,7.004,25.979C6.940,25.979,6.875,25.979,6.809,25.979C6.949,25.463,7.197,25.263,7.588,24.948ZZ" style="fill: rgb(169, 191, 212);" class="fills"/><path d="M23.930,19.794C24.090,19.794,24.251,19.794,24.416,19.794C24.089,20.099,23.765,20.198,23.346,20.309C23.346,20.207,23.346,20.105,23.346,20.000C23.539,20.000,23.732,20.000,23.930,20.000C23.930,19.932,23.930,19.864,23.930,19.794ZZ" style="fill: rgb(189, 206, 222);" class="fills"/><path d="M29.086,8.866C29.118,8.934,29.150,9.002,29.183,9.072C29.086,9.381,29.086,9.381,28.891,9.485C28.820,9.723,28.755,9.964,28.696,10.206C28.664,10.206,28.632,10.206,28.599,10.206C28.637,9.617,28.684,9.305,29.086,8.866ZZ" style="fill: rgb(229, 193, 111);" class="fills"/><path d="M44.455,39.897C44.519,39.931,44.584,39.965,44.650,40.000C44.392,40.374,44.162,40.608,43.774,40.825C43.793,40.580,43.793,40.580,43.872,40.309C44.115,40.187,44.115,40.187,44.358,40.103C44.390,40.035,44.422,39.967,44.455,39.897ZZ" style="fill: rgb(201, 215, 232);" class="fills"/><path d="M44.650,33.196C44.911,33.748,44.911,33.748,44.942,34.021C44.850,34.304,44.850,34.304,44.747,34.536C44.715,34.536,44.683,34.536,44.650,34.536C44.650,34.094,44.650,33.652,44.650,33.196ZZ" style="fill: rgb(153, 181, 212);" class="fills"/><path d="M16.537,25.361C16.778,25.412,16.778,25.412,17.023,25.464C17.055,25.634,17.088,25.804,17.121,25.979C16.928,25.877,16.735,25.775,16.537,25.670C16.537,25.568,16.537,25.466,16.537,25.361ZZ" style="fill: rgb(178, 198, 220);" class="fills"/><path d="M11.770,24.948C11.899,24.982,12.027,25.016,12.160,25.052C12.035,25.315,11.941,25.330,11.685,25.432C11.617,25.460,11.549,25.488,11.479,25.517C11.284,25.567,11.284,25.567,10.992,25.464C11.103,25.417,11.213,25.370,11.327,25.322C11.678,25.199,11.678,25.199,11.770,24.948ZZ" style="fill: rgb(191, 209, 230);" class="fills"/><path d="M17.510,22.268C17.564,22.468,17.564,22.468,17.607,22.680C17.510,22.784,17.510,22.784,17.224,22.809C17.126,22.801,17.027,22.792,16.926,22.784C16.862,22.681,16.798,22.579,16.732,22.474C16.956,22.474,17.181,22.474,17.412,22.474C17.445,22.406,17.477,22.338,17.510,22.268ZZ" style="fill: rgb(195, 213, 233);" class="fills"/><path d="M31.712,6.186C31.776,6.220,31.840,6.254,31.907,6.289C31.833,6.410,31.758,6.530,31.682,6.649C31.640,6.716,31.598,6.783,31.555,6.852C31.511,6.905,31.466,6.957,31.420,7.010C31.324,7.010,31.228,7.010,31.128,7.010C31.193,6.874,31.257,6.738,31.323,6.598C31.387,6.598,31.451,6.598,31.518,6.598C31.582,6.462,31.646,6.326,31.712,6.186ZZ" style="fill: rgb(237, 213, 169);" class="fills"/><path d="M26.848,40.412C26.977,40.446,27.105,40.480,27.237,40.515C27.237,40.618,27.237,40.720,27.237,40.825C27.302,40.825,27.366,40.825,27.432,40.825C27.432,40.893,27.432,40.961,27.432,41.031C27.336,41.065,27.239,41.099,27.140,41.134C26.848,40.760,26.848,40.760,26.848,40.412ZZ" style="fill: rgb(175, 195, 215);" class="fills"/><path d="M46.887,31.546C46.951,31.546,47.016,31.546,47.082,31.546C47.114,31.853,47.146,32.159,47.179,32.474C47.115,32.440,47.051,32.406,46.984,32.371C46.913,32.133,46.848,31.892,46.790,31.649C46.822,31.615,46.854,31.581,46.887,31.546ZZ" style="fill: rgb(178, 199, 217);" class="fills"/><path d="M18.288,13.093C18.224,13.093,18.160,13.093,18.093,13.093C18.093,13.161,18.093,13.229,18.093,13.299C17.901,13.367,17.708,13.435,17.510,13.505C17.542,13.369,17.574,13.233,17.607,13.093C17.900,12.996,17.983,12.985,18.288,13.093ZZ" style="fill: rgb(239, 213, 149);" class="fills"/><path d="M16.634,10.722C16.634,10.790,16.634,10.858,16.634,10.928C16.277,11.130,15.966,11.278,15.564,11.340C15.833,11.008,16.211,10.722,16.634,10.722ZZ" style="fill: rgb(235, 217, 177);" class="fills"/><path d="M9.728,38.041C9.965,38.125,9.965,38.125,10.214,38.247C10.246,38.349,10.278,38.452,10.311,38.557C10.023,38.494,9.885,38.427,9.630,38.247C9.662,38.179,9.695,38.111,9.728,38.041ZZ" style="fill: rgb(183, 203, 223);" class="fills"/><path d="M32.490,16.495C32.632,16.541,32.774,16.589,32.916,16.637C32.995,16.663,33.074,16.689,33.155,16.716C33.366,16.804,33.366,16.804,33.560,17.010C33.166,16.962,32.834,16.920,32.490,16.701C32.490,16.633,32.490,16.565,32.490,16.495ZZ" style="fill: rgb(204, 220, 237);" class="fills"/><path d="M12.743,14.021C12.775,14.021,12.807,14.021,12.743,14.021ZC12.840,14.225,12.840,14.429,12.840,14.639C12.680,14.707,12.519,14.775,12.354,14.845C12.412,14.500,12.528,14.286,12.743,14.021ZZ" style="fill: rgb(232, 191, 104);" class="fills"/><path d="M33.463,6.082C33.840,6.276,33.840,6.276,33.949,6.392C33.953,6.598,33.954,6.804,33.949,7.010C33.695,6.876,33.689,6.767,33.597,6.488C33.571,6.413,33.546,6.337,33.520,6.259C33.501,6.201,33.482,6.143,33.463,6.082ZZ" style="fill: rgb(234, 207, 146);" class="fills"/><path d="M46.012,37.938C46.012,38.247,46.012,38.247,45.768,38.524C45.688,38.603,45.608,38.682,45.525,38.763C45.493,38.661,45.461,38.559,45.428,38.454C45.488,38.445,45.548,38.437,45.610,38.428C45.835,38.370,45.835,38.370,45.939,38.138C45.963,38.072,45.987,38.006,46.012,37.938ZZ" style="fill: rgb(180, 199, 217);" class="fills"/><path d="M17.996,21.340C18.075,21.514,18.075,21.514,18.093,21.753C17.856,22.036,17.856,22.036,17.607,22.268C17.710,21.917,17.802,21.648,17.996,21.340ZZ" style="fill: rgb(187, 206, 221);" class="fills"/><path d="M34.436,21.031C34.564,21.031,34.693,21.031,34.825,21.031C34.825,21.099,34.825,21.167,34.825,21.237C34.953,21.271,35.082,21.305,35.214,21.340C35.214,21.408,35.214,21.476,35.214,21.546C34.886,21.424,34.665,21.312,34.436,21.031ZZ" style="fill: rgb(200, 215, 232);" class="fills"/><path d="M16.148,11.031C16.244,11.065,16.340,11.099,16.440,11.134C16.408,11.202,16.375,11.270,16.342,11.340C16.141,11.405,16.141,11.405,15.899,11.456C15.818,11.473,15.738,11.491,15.655,11.509C15.593,11.521,15.531,11.534,15.467,11.546C15.602,11.259,15.774,11.244,16.051,11.134C16.083,11.100,16.115,11.066,16.148,11.031ZZ" style="fill: rgb(229, 193, 101);" class="fills"/></g></svg>