<svg width="50" xmlns="http://www.w3.org/2000/svg" height="50" fill="none"><g style="fill: rgb(0, 0, 0);"><path d="M29.808,0.000C25.404,0.000,21.754,2.487,19.531,5.950C19.115,5.892,18.721,5.769,18.269,5.769C13.458,5.769,9.615,9.106,8.354,13.521C3.742,13.692,0.000,17.463,0.000,22.115C0.000,26.871,3.898,30.769,8.654,30.769L39.423,30.769C45.242,30.769,50.000,26.012,50.000,20.192C50.000,15.240,46.496,11.227,41.887,10.096C40.737,4.383,35.846,0.000,29.808,0.000ZZM29.808,3.846C34.307,3.834,38.055,7.293,38.402,11.779L38.581,13.402L40.144,13.521C43.564,13.871,46.162,16.755,46.154,20.192C46.154,23.931,43.162,26.923,39.423,26.923L8.654,26.923C7.376,26.931,6.149,26.427,5.246,25.523C4.342,24.620,3.838,23.393,3.846,22.115C3.838,20.712,4.447,19.376,5.511,18.461C6.576,17.547,7.989,17.147,9.375,17.367L11.419,17.729L11.598,15.685C11.920,12.242,14.812,9.611,18.269,9.615C18.769,9.615,19.288,9.667,19.833,9.796L21.333,10.156L21.996,8.775C23.429,5.761,26.470,3.842,29.808,3.846ZZM40.325,32.392C38.498,33.338,34.317,34.865,33.233,36.598C32.704,37.426,32.527,38.431,32.742,39.390C32.956,40.349,33.544,41.183,34.375,41.708C36.104,42.794,38.262,42.144,39.483,40.506C40.569,39.048,40.323,36.313,40.325,32.392ZZM13.402,34.315C11.575,35.262,7.394,36.788,6.310,38.521C5.781,39.349,5.604,40.354,5.819,41.313C6.033,42.272,6.621,43.106,7.452,43.631C9.181,44.717,11.338,44.067,12.560,42.429C13.646,40.971,13.400,38.237,13.402,34.315ZZM26.863,40.085C25.037,41.031,20.856,42.558,19.771,44.290C19.242,45.119,19.066,46.124,19.280,47.083C19.494,48.042,20.082,48.876,20.913,49.400C22.642,50.487,24.800,49.837,26.021,48.198C27.108,46.740,26.862,44.006,26.863,40.085ZZ" style="fill: rgb(140, 175, 212); fill-opacity: 1;" class="fills"/></g></svg>