<svg width="50" xmlns="http://www.w3.org/2000/svg" height="50" fill="none"><g style="fill: rgb(0, 0, 0);"><path d="M26.389,38.314L26.389,11.687L33.094,4.981C33.094,4.981,34.076,3.999,33.094,3.015C32.113,2.033,31.131,3.015,31.131,3.015L26.389,7.758L26.389,1.389C26.389,1.389,26.389,0.000,25.000,0.000C23.611,0.000,23.611,1.389,23.611,1.389L23.611,7.758L18.869,3.015C18.869,3.015,17.888,2.033,16.906,3.015C15.924,3.999,16.906,4.981,16.906,4.981L23.611,11.687L23.611,38.314L16.906,45.019C16.906,45.019,15.924,46.001,16.906,46.983C17.888,47.965,18.869,46.983,18.869,46.983L23.611,42.242L23.611,48.611C23.611,48.611,23.611,50.000,25.000,50.000C26.389,50.000,26.389,48.611,26.389,48.611L26.389,42.242L31.131,46.983C31.131,46.983,32.113,47.965,33.094,46.983C34.076,46.001,33.094,45.019,33.094,45.019L26.389,38.314ZZ" style="fill: rgb(140, 175, 212); fill-opacity: 1;" class="fills"/><path d="M48.086,28.981C47.726,27.639,46.385,27.999,46.385,27.999L37.225,30.453L14.165,17.139L11.711,7.979C11.711,7.979,11.351,6.637,10.010,6.997C8.667,7.357,9.028,8.699,9.028,8.699L10.764,15.176L5.247,11.990C5.247,11.990,4.044,11.296,3.350,12.499C2.656,13.701,3.858,14.396,3.858,14.396L9.374,17.581L2.896,19.315C2.896,19.315,1.553,19.675,1.914,21.017C2.274,22.360,3.615,22.000,3.615,22.000L12.776,19.546L35.836,32.860L38.290,42.021C38.290,42.021,38.650,43.362,39.992,43.003C41.333,42.642,40.974,41.301,40.974,41.301L39.238,34.824L44.754,38.008C44.754,38.008,45.958,38.703,46.653,37.501C47.347,36.297,46.143,35.603,46.143,35.603L40.628,32.418L47.104,30.683C47.104,30.682,48.446,30.322,48.086,28.981ZZ" style="fill: rgb(140, 175, 212); fill-opacity: 1;" class="fills"/><path d="M47.104,19.315L40.626,17.579L46.143,14.394C46.143,14.394,47.347,13.699,46.653,12.496C45.957,11.292,44.754,11.987,44.754,11.987L39.239,15.171L40.974,8.694C40.974,8.694,41.333,7.353,39.992,6.993C38.650,6.633,38.290,7.975,38.290,7.975L35.836,17.135L12.775,30.453L3.617,27.997C3.617,27.997,2.275,27.637,1.915,28.979C1.554,30.322,2.897,30.681,2.897,30.681L9.374,32.415L3.858,35.600C3.858,35.600,2.657,36.296,3.351,37.499C4.046,38.700,5.247,38.006,5.247,38.006L10.764,34.821L9.028,41.297C9.028,41.297,8.668,42.640,10.010,42.999C11.353,43.360,11.713,42.018,11.713,42.018L14.168,32.856L37.229,19.543L46.389,21.999C46.389,21.999,47.731,22.358,48.090,21.017C48.444,19.674,47.104,19.315,47.104,19.315ZZ" style="fill: rgb(140, 175, 212); fill-opacity: 1;" class="fills"/></g></svg>