<svg width="50" xmlns="http://www.w3.org/2000/svg" height="50" fill="none"><g style="fill: rgb(0, 0, 0);"><path d="M22.222,2.778C22.222,2.778,22.222,0.000,25.000,0.000C27.778,0.000,27.778,2.778,27.778,2.778L27.778,5.556C27.778,5.556,27.778,8.333,25.000,8.333C22.222,8.333,22.222,5.556,22.222,5.556L22.222,2.778ZZM47.222,22.222C47.222,22.222,50.000,22.222,50.000,25.000C50.000,27.778,47.222,27.778,47.222,27.778L44.444,27.778C44.444,27.778,41.667,27.778,41.667,25.000C41.667,22.222,44.444,22.222,44.444,22.222L47.222,22.222ZZM5.556,22.222C5.556,22.222,8.333,22.222,8.333,25.000C8.333,27.778,5.556,27.778,5.556,27.778L2.778,27.778C2.778,27.778,0.000,27.778,0.000,25.000C0.000,22.222,2.778,22.222,2.778,22.222L5.556,22.222ZZM12.668,10.129C12.668,10.129,14.632,12.093,12.668,14.057C10.704,16.021,8.740,14.057,8.740,14.057L6.775,12.094C6.775,12.094,4.811,10.131,6.775,8.165C8.740,6.201,10.704,8.165,10.704,8.165L12.668,10.129ZZM41.835,39.296C41.835,39.296,43.799,41.260,41.835,43.224C39.871,45.188,37.907,43.224,37.907,43.224L35.943,41.260C35.943,41.260,33.979,39.296,35.943,37.332C37.907,35.368,39.871,37.332,39.871,37.332L41.835,39.296ZZM41.261,14.057C41.261,14.057,39.297,16.021,37.333,14.057C35.369,12.093,37.333,10.129,37.333,10.129L39.297,8.165C39.297,8.165,41.261,6.201,43.225,8.165C45.189,10.129,43.225,12.093,43.225,12.093L41.261,14.057ZZM12.094,43.224C12.094,43.224,10.131,45.188,8.167,43.224C6.203,41.260,8.167,39.296,8.167,39.296L10.131,37.332C10.131,37.332,12.094,35.368,14.058,37.332C16.022,39.296,14.058,41.260,14.058,41.260L12.094,43.224ZZM22.222,44.444C22.222,44.444,22.222,41.667,25.000,41.667C27.778,41.667,27.778,44.444,27.778,44.444L27.778,47.222C27.778,47.222,27.778,50.000,25.000,50.000C22.222,50.000,22.222,47.222,22.222,47.222L22.222,44.444ZZ" style="fill: rgb(238, 189, 83); fill-opacity: 1;" class="fills"/><ellipse cx="25" cy="25" rx="13.889" ry="13.889" transform="matrix(1.000000, 0.000000, 0.000000, 1.000000, 0.000000, 0.000000)" style="fill: rgb(238, 189, 83); fill-opacity: 1;" class="fills"/></g></svg>