<svg width="50" xmlns="http://www.w3.org/2000/svg" height="50" fill="none"><g style="fill: rgb(0, 0, 0);"><path d="M36.719,34.375L35.938,34.375L35.938,31.250L36.719,31.250C40.602,31.405,43.876,28.383,44.031,24.500C44.187,20.617,41.165,17.343,37.281,17.187L35.938,17.188L35.781,15.906C35.064,10.465,30.426,6.398,24.938,6.398C19.449,6.398,14.811,10.465,14.094,15.906L14.063,17.188L12.719,17.188C8.835,17.343,5.813,20.617,5.969,24.500C6.124,28.383,9.398,31.405,13.281,31.250L14.063,31.250L14.063,34.375L13.281,34.375C8.092,34.342,3.763,30.403,3.241,25.240C2.719,20.078,6.173,15.352,11.250,14.281C12.640,7.798,18.370,3.167,25.000,3.167C31.630,3.167,37.360,7.798,38.750,14.281C43.827,15.352,47.281,20.078,46.759,25.240C46.237,30.403,41.908,34.342,36.719,34.375ZZ" style="fill: rgb(140, 175, 212); fill-opacity: 1;" class="fills"/><path d="M24.797,47.656L22.078,46.094L27.000,37.500L17.625,37.500L25.203,24.219L27.922,25.781L23.000,34.375L32.375,34.375L24.797,47.656ZZ" style="fill: rgb(238, 189, 83); fill-opacity: 1;" class="fills"/></g></svg>