<svg width="50" xmlns="http://www.w3.org/2000/svg" height="50" fill="none"><g style="fill: rgb(0, 0, 0);"><path d="M20.313,46.875C16.000,46.870,12.505,43.375,12.500,39.063L15.625,39.063C15.625,41.651,17.724,43.750,20.313,43.750C22.901,43.750,25.000,41.651,25.000,39.063C25.000,36.474,22.901,34.375,20.313,34.375L6.250,34.375L6.250,31.250L20.313,31.250C24.627,31.250,28.125,34.748,28.125,39.063C28.125,43.377,24.627,46.875,20.313,46.875ZZ" style="fill: rgb(140, 175, 212); fill-opacity: 1;" class="fills"/><path d="M39.063,39.063C34.750,39.057,31.255,35.563,31.250,31.250L34.375,31.250C34.375,33.839,36.474,35.938,39.063,35.938C41.651,35.938,43.750,33.839,43.750,31.250C43.750,28.661,41.651,26.563,39.063,26.563L3.125,26.563L3.125,23.438L39.063,23.438C43.377,23.438,46.875,26.935,46.875,31.250C46.875,35.565,43.377,39.063,39.063,39.063ZZM32.813,18.750L9.375,18.750L9.375,15.625L32.813,15.625C35.401,15.625,37.500,13.526,37.500,10.938C37.500,8.349,35.401,6.250,32.813,6.250C30.224,6.250,28.125,8.349,28.125,10.938L25.000,10.938C25.000,6.623,28.498,3.125,32.813,3.125C37.127,3.125,40.625,6.623,40.625,10.938C40.625,15.252,37.127,18.750,32.813,18.750ZZ" style="fill: rgb(140, 175, 212); fill-opacity: 1;" class="fills"/></g></svg>