<svg width="65" xmlns="http://www.w3.org/2000/svg" height="65" fill="none"><g style="fill: rgb(0, 0, 0);"><path d="M27.083,2.708L27.083,29.792L35.208,24.375L43.333,29.792L43.333,2.708M14.896,48.750C11.156,48.750,8.125,51.781,8.125,55.521C8.125,59.260,11.156,62.292,14.896,62.292L59.583,62.292M8.125,55.521L8.125,9.479C8.125,5.740,11.156,2.708,14.896,2.708L56.875,2.708L56.875,48.769L14.874,48.769M55.521,48.750C51.781,48.750,48.750,51.781,48.750,55.521C48.750,59.260,51.781,62.292,55.521,62.292" fill="none" style="fill: none;" class="fills"/><g fill="none" class="strokes"><path d="M27.083,2.708L27.083,29.792L35.208,24.375L43.333,29.792L43.333,2.708M14.896,48.750C11.156,48.750,8.125,51.781,8.125,55.521C8.125,59.260,11.156,62.292,14.896,62.292L59.583,62.292M8.125,55.521L8.125,9.479C8.125,5.740,11.156,2.708,14.896,2.708L56.875,2.708L56.875,48.769L14.874,48.769M55.521,48.750C51.781,48.750,48.750,51.781,48.750,55.521C48.750,59.260,51.781,62.292,55.521,62.292" style="fill: none; stroke-width: 2; stroke: rgb(0, 0, 0); stroke-opacity: 1;" class="stroke-shape"/></g></g></svg>