<svg width="24" xmlns="http://www.w3.org/2000/svg" height="24" fill="none"><g style="fill: rgb(0, 0, 0);"><path d="M17.440,9.330L16.340,9.330L16.340,6.400C16.340,4.003,14.397,2.060,12.000,2.060C9.603,2.060,7.660,4.003,7.660,6.400L7.660,9.330L6.560,9.330C5.179,9.330,4.060,10.449,4.060,11.830L4.060,19.440C4.064,20.819,5.181,21.936,6.560,21.940L17.440,21.940C18.819,21.936,19.936,20.819,19.940,19.440L19.940,11.830C19.940,10.449,18.821,9.330,17.440,9.330ZZM8.660,6.400C8.660,4.555,10.155,3.060,12.000,3.060C13.845,3.060,15.340,4.555,15.340,6.400L15.340,9.330L8.660,9.330ZM18.940,19.440C18.934,20.266,18.266,20.934,17.440,20.940L6.560,20.940C5.734,20.934,5.066,20.266,5.060,19.440L5.060,11.830C5.060,11.002,5.732,10.330,6.560,10.330L17.440,10.330C18.268,10.330,18.940,11.002,18.940,11.830Z" style="fill: rgb(208, 160, 194); fill-opacity: 1;" class="fills"/><path d="M13.000,14.950C13.001,15.306,12.810,15.635,12.500,15.810L12.500,17.310C12.500,17.586,12.276,17.810,12.000,17.810C11.724,17.810,11.500,17.586,11.500,17.310L11.500,15.810C11.190,15.635,10.999,15.306,11.000,14.950C11.000,14.398,11.448,13.950,12.000,13.950C12.552,13.950,13.000,14.398,13.000,14.950ZZ" style="fill: rgb(208, 160, 194); fill-opacity: 1;" class="fills"/></g></svg>