<svg width="24.002" xmlns="http://www.w3.org/2000/svg" height="24.002" fill="none"><g style="fill: rgb(0, 0, 0);"><path d="M24.000,12.000L24.000,12.000ZC24.000,8.443,22.454,5.254,19.999,3.061L19.987,3.051C19.957,3.018,19.923,2.989,19.886,2.964L19.884,2.963C17.704,1.049,14.900,-0.005,11.998,0.001C8.966,0.001,6.198,1.127,4.088,2.985L4.101,2.974C4.076,2.993,4.052,3.015,4.031,3.039L4.031,3.040C1.465,5.312,-0.003,8.576,0.000,12.003C0.000,15.553,1.544,18.742,3.997,20.936L4.009,20.946C4.041,20.982,4.076,21.015,4.115,21.043L4.117,21.044C6.297,22.956,9.099,24.007,11.998,24.002C14.911,24.006,17.725,22.945,19.909,21.018L19.896,21.029C22.507,18.759,24.005,15.468,24.000,12.000ZL24.000,12.000ZZM19.538,19.805C18.944,19.324,18.304,18.902,17.629,18.543L17.564,18.511C18.177,16.744,18.546,14.707,18.581,12.588L18.581,12.572L22.842,12.572C22.698,15.313,21.518,17.898,19.538,19.805ZZM12.572,18.300C13.855,18.369,15.054,18.651,16.160,19.110L16.088,19.084C15.202,21.104,13.955,22.492,12.572,22.797ZM12.572,17.156L12.572,12.572L17.440,12.572C17.401,14.470,17.072,16.351,16.464,18.150L16.503,18.019C15.261,17.509,13.941,17.217,12.572,17.156ZL12.572,17.156ZZM12.572,11.428L12.572,6.844C13.949,6.781,15.305,6.480,16.579,5.953L16.500,5.982C17.055,7.601,17.396,9.467,17.440,11.407L17.440,11.428ZM12.572,5.700L12.572,1.205C13.955,1.510,15.202,2.892,16.088,4.918C15.054,5.348,13.855,5.629,12.572,5.700ZZM15.426,1.700C16.604,2.093,17.706,2.686,18.684,3.452L18.661,3.434C18.218,3.782,17.721,4.110,17.197,4.395L17.141,4.423C16.718,3.424,16.135,2.499,15.426,1.700ZL15.426,1.700ZZM11.426,1.208L11.426,5.700C10.192,5.637,8.979,5.363,7.838,4.890L7.910,4.916C8.800,2.896,10.045,1.509,11.426,1.208ZZM6.858,4.420C6.316,4.128,5.799,3.791,5.314,3.413L5.338,3.431C6.287,2.687,7.355,2.108,8.496,1.719L8.572,1.696C7.872,2.487,7.302,3.385,6.858,4.420ZL6.858,4.420ZZM11.428,6.843L11.428,11.427L6.560,11.427C6.604,9.466,6.945,7.600,7.539,5.850L7.500,5.981C8.741,6.490,10.061,6.782,11.428,6.843ZZM11.428,12.571L11.428,17.155C10.051,17.218,8.695,17.519,7.421,18.046L7.500,18.017C6.945,16.399,6.604,14.532,6.560,12.592L6.560,12.571ZM11.428,18.299L11.428,22.794C10.045,22.489,8.798,21.107,7.912,19.081C8.946,18.651,10.145,18.371,11.428,18.299ZL11.428,18.299ZZM8.578,22.299C7.400,21.907,6.298,21.316,5.320,20.551L5.344,20.569C5.787,20.221,6.284,19.893,6.808,19.608L6.864,19.580C7.284,20.580,7.866,21.503,8.578,22.299ZL8.578,22.299ZZM17.142,19.579C17.722,19.894,18.219,20.221,18.686,20.586L18.662,20.568C17.713,21.312,16.645,21.891,15.504,22.280L15.428,22.303C16.128,21.512,16.698,20.615,17.142,19.579ZL17.142,19.579ZZM22.842,11.428L18.581,11.428C18.550,9.359,18.193,7.308,17.523,5.350L17.564,5.488C18.270,5.116,18.939,4.677,19.561,4.176L19.537,4.194C21.510,6.091,22.691,8.666,22.842,11.428ZL22.842,11.428ZZM4.462,4.195C5.038,4.663,5.685,5.092,6.371,5.457L6.436,5.489C5.823,7.256,5.454,9.293,5.419,11.412L5.419,11.428L1.157,11.428C1.301,8.687,2.481,6.102,4.462,4.195ZL4.462,4.195ZZM1.158,12.572L5.419,12.572C5.450,14.641,5.807,16.692,6.477,18.650L6.436,18.512C5.685,18.911,5.039,19.340,4.439,19.824L4.463,19.806C2.490,17.909,1.309,15.334,1.158,12.572ZL1.158,12.572ZZ" style="fill: rgb(140, 175, 212); fill-opacity: 1;" class="fills"/></g></svg>