<svg width="40" xmlns="http://www.w3.org/2000/svg" height="40" id="screenshot-82fb048d-c384-80f8-8005-802f4aaa64c5" viewBox="0 0 40 40" xmlns:xlink="http://www.w3.org/1999/xlink" fill="none" version="1.1"><g id="shape-82fb048d-c384-80f8-8005-802f4aaa64c5" width="200" height="200" rx="0" ry="0" style="fill: rgb(0, 0, 0);"><g id="shape-82fb048d-c384-80f8-8005-802f4aaa9ebe" style="display: none;"><g class="fills" id="fills-82fb048d-c384-80f8-8005-802f4aaa9ebe"><rect width="40" height="40" x="0" transform="matrix(1.000000, 0.000000, 0.000000, 1.000000, 0.000000, 0.000000)" style="fill: none;" ry="0" fill="none" rx="0" y="0"/></g></g><g id="shape-82fb048d-c384-80f8-8005-802f4aaa9ebf"><g class="fills" id="fills-82fb048d-c384-80f8-8005-802f4aaa9ebf"><path d="M17.5,7.5L22.5,7.5C22.5,6.119140625,21.3807373046875,5,20,5C18.6192626953125,5,17.5,6.119140625,17.5,7.5ZM15,7.5C15,4.73828125,17.238525390625,2.5,20,2.5C22.761474609375,2.5,25,4.73828125,25,7.5L35,7.5C35.6903076171875,7.5,36.25,8.0595703125,36.25,8.75C36.25,9.4404296875,35.6903076171875,10,35,10L33.5899658203125,10L30.5775146484375,32.0947265625C30.155029296875,35.19140625,27.5101318359375,37.5,24.385009765625,37.5L15.614990234375,37.5C12.4898681640625,37.5,9.844970703125,35.19140625,9.4224853515625,32.0947265625L6.4100341796875,10L5,10C4.3096923828125,10,3.75,9.4404296875,3.75,8.75C3.75,8.0595703125,4.3096923828125,7.5,5,7.5L15,7.5ZM17.5,16.25C17.5,15.5595703125,16.9403076171875,15,16.25,15C15.5596923828125,15,15,15.5595703125,15,16.25L15,28.75C15,29.4404296875,15.5596923828125,30,16.25,30C16.9403076171875,30,17.5,29.4404296875,17.5,28.75L17.5,16.25ZM23.75,15C24.4403076171875,15,25,15.5595703125,25,16.25L25,28.75C25,29.4404296875,24.4403076171875,30,23.75,30C23.0596923828125,30,22.5,29.4404296875,22.5,28.75L22.5,16.25C22.5,15.5595703125,23.0596923828125,15,23.75,15ZM11.9000244140625,31.7578125C12.1536865234375,33.615234375,13.740234375,35,15.614990234375,35L24.385009765625,35C26.2607421875,35.0009765625,27.8486328125,33.6162109375,28.1025390625,31.7578125L31.0675048828125,10L8.9324951171875,10L11.9000244140625,31.7578125Z" style="fill: rgb(0, 0, 0);"/></g></g></g></svg>